<svg xmlns="http://www.w3.org/2000/svg" xmlns:xlink="http://www.w3.org/1999/xlink" width="500" zoomAndPan="magnify" viewBox="0 0 375 374.999991" height="500" preserveAspectRatio="xMidYMid meet" version="1.0"><defs><g/></defs><g fill="#ffffff" fill-opacity="1"><g transform="translate(97.739868, 192.151778)"><g><path d="M 3.21875 -44.1875 L 16.015625 -44.1875 C 22.160156 -44.1875 27.410156 -42.085938 31.765625 -37.890625 C 36.117188 -33.703125 38.296875 -28.445312 38.296875 -22.125 C 38.296875 -15.769531 36.125 -10.492188 31.78125 -6.296875 C 27.445312 -2.097656 22.191406 0 16.015625 0 L 3.21875 0 Z M 13.28125 -9 L 14.84375 -9 C 18.519531 -9 21.523438 -10.238281 23.859375 -12.71875 C 26.203125 -15.195312 27.390625 -18.3125 27.421875 -22.0625 C 27.421875 -25.8125 26.25 -28.9375 23.90625 -31.4375 C 21.570312 -33.9375 18.550781 -35.1875 14.84375 -35.1875 L 13.28125 -35.1875 Z M 13.28125 -9 "/></g></g></g><g fill="#ffffff" fill-opacity="1"><g transform="translate(132.709059, 192.151778)"><g><path d="M 37.171875 -44.1875 L 37.171875 -15.6875 C 37.171875 -10.257812 35.707031 -6.15625 32.78125 -3.375 C 29.851562 -0.59375 25.566406 0.796875 19.921875 0.796875 C 14.285156 0.796875 10 -0.59375 7.0625 -3.375 C 4.132812 -6.15625 2.671875 -10.257812 2.671875 -15.6875 L 2.671875 -44.1875 L 12.75 -44.1875 L 12.75 -18.640625 C 12.75 -15.066406 13.3125 -12.582031 14.4375 -11.1875 C 15.5625 -9.800781 17.390625 -9.109375 19.921875 -9.109375 C 22.460938 -9.109375 24.296875 -9.800781 25.421875 -11.1875 C 26.546875 -12.582031 27.109375 -15.066406 27.109375 -18.640625 L 27.109375 -44.1875 Z M 37.171875 -44.1875 "/></g></g></g><g fill="#ffffff" fill-opacity="1"><g transform="translate(167.999571, 192.151778)"><g><path d="M 3.21875 -44.1875 L 19.015625 -44.1875 C 23.265625 -44.1875 26.726562 -43.050781 29.40625 -40.78125 C 32.082031 -38.519531 33.421875 -35.28125 33.421875 -31.0625 C 33.421875 -27.8125 32.609375 -25.085938 30.984375 -22.890625 C 29.359375 -20.703125 27.15625 -19.160156 24.375 -18.265625 L 39.578125 0 L 26.78125 0 L 13.28125 -17.46875 L 13.28125 0 L 3.21875 0 Z M 13.28125 -24.578125 L 14.46875 -24.578125 C 15.394531 -24.578125 16.175781 -24.59375 16.8125 -24.625 C 17.457031 -24.664062 18.191406 -24.789062 19.015625 -25 C 19.835938 -25.21875 20.5 -25.523438 21 -25.921875 C 21.5 -26.316406 21.925781 -26.890625 22.28125 -27.640625 C 22.632812 -28.390625 22.8125 -29.300781 22.8125 -30.375 C 22.8125 -31.445312 22.632812 -32.351562 22.28125 -33.09375 C 21.925781 -33.84375 21.5 -34.414062 21 -34.8125 C 20.5 -35.207031 19.835938 -35.507812 19.015625 -35.71875 C 18.191406 -35.9375 17.457031 -36.0625 16.8125 -36.09375 C 16.175781 -36.132812 15.394531 -36.15625 14.46875 -36.15625 L 13.28125 -36.15625 Z M 13.28125 -24.578125 "/></g></g></g><g fill="#ffffff" fill-opacity="1"><g transform="translate(201.790581, 192.151778)"><g><path d="M 25.65625 -44.1875 L 43.5 0 L 32.671875 0 L 29.40625 -8.84375 L 12.59375 -8.84375 L 9.3125 0 L -1.5 0 L 16.34375 -44.1875 Z M 25.984375 -17.671875 L 21.046875 -30.53125 L 20.9375 -30.53125 L 16.015625 -17.671875 Z M 25.984375 -17.671875 "/></g></g></g><g fill="#ffffff" fill-opacity="1"><g transform="translate(239.223246, 192.151778)"><g><path d="M 13.28125 -27.421875 L 13.28125 0 L 3.21875 0 L 3.21875 -44.1875 L 13.28125 -44.1875 L 30.859375 -16.765625 L 30.953125 -16.765625 L 30.953125 -44.1875 L 41.03125 -44.1875 L 41.03125 0 L 30.953125 0 L 13.390625 -27.421875 Z M 13.28125 -27.421875 "/></g></g></g><path stroke-linecap="butt" transform="matrix(0.75, 0, 0, 0.75, 51.010028, 243.554794)" fill="none" stroke-linejoin="miter" d="M 0.00225387 4.999858 L 84.434551 4.999858 " stroke="#ffffff" stroke-width="10" stroke-opacity="1" stroke-miterlimit="4"/><path stroke-linecap="butt" transform="matrix(0, 0.75, -0.75, 0, 58.506183, 186.961101)" fill="none" stroke-linejoin="miter" d="M -0.000218431 4.997828 L 82.463329 4.997828 " stroke="#ffffff" stroke-width="10" stroke-opacity="1" stroke-miterlimit="4"/><path stroke-linecap="butt" transform="matrix(-0.75, 0, 0, -0.75, 330.796125, 140.038409)" fill="none" stroke-linejoin="miter" d="M -0.000999763 4.999129 L 84.431297 4.999129 " stroke="#ffffff" stroke-width="10" stroke-opacity="1" stroke-miterlimit="4"/><path stroke-linecap="butt" transform="matrix(0, -0.75, 0.75, 0, 323.299963, 196.632102)" fill="none" stroke-linejoin="miter" d="M -0.00094695 5.001091 L 82.4626 5.001091 " stroke="#e4e2dd" stroke-width="10" stroke-opacity="1" stroke-miterlimit="4"/><g fill="#ffffff" fill-opacity="1"><g transform="translate(60.950164, 238.649812)"><g><path d="M 13.28125 -44.1875 L 13.28125 -8.84375 L 28.5 -8.84375 L 28.5 0 L 3.21875 0 L 3.21875 -44.1875 Z M 13.28125 -44.1875 "/></g></g></g><g fill="#ffffff" fill-opacity="1"><g transform="translate(86.654585, 238.649812)"><g><path d="M 1.234375 -22.125 C 1.234375 -28.507812 3.410156 -33.914062 7.765625 -38.34375 C 12.117188 -42.78125 17.367188 -45 23.515625 -45 C 29.691406 -45 34.941406 -42.789062 39.265625 -38.375 C 43.585938 -33.96875 45.75 -28.550781 45.75 -22.125 C 45.75 -15.65625 43.625 -10.21875 39.375 -5.8125 C 35.125 -1.40625 29.835938 0.796875 23.515625 0.796875 C 17.046875 0.796875 11.710938 -1.382812 7.515625 -5.75 C 3.328125 -10.125 1.234375 -15.582031 1.234375 -22.125 Z M 12.109375 -22.125 C 12.109375 -19.800781 12.460938 -17.679688 13.171875 -15.765625 C 13.890625 -13.859375 15.140625 -12.242188 16.921875 -10.921875 C 18.710938 -9.597656 20.910156 -8.9375 23.515625 -8.9375 C 27.265625 -8.9375 30.09375 -10.222656 32 -12.796875 C 33.914062 -15.367188 34.875 -18.476562 34.875 -22.125 C 34.875 -25.726562 33.898438 -28.820312 31.953125 -31.40625 C 30.003906 -34 27.191406 -35.296875 23.515625 -35.296875 C 19.867188 -35.296875 17.054688 -34 15.078125 -31.40625 C 13.097656 -28.820312 12.109375 -25.726562 12.109375 -22.125 Z M 12.109375 -22.125 "/></g></g></g><g fill="#ffffff" fill-opacity="1"><g transform="translate(129.067739, 238.649812)"><g><path d="M 43.171875 -24.75 L 43.171875 -15.15625 C 42.023438 -9.90625 39.523438 -5.929688 35.671875 -3.234375 C 31.816406 -0.546875 27.515625 0.796875 22.765625 0.796875 C 16.796875 0.796875 11.710938 -1.429688 7.515625 -5.890625 C 3.328125 -10.359375 1.234375 -15.75 1.234375 -22.0625 C 1.234375 -28.488281 3.285156 -33.914062 7.390625 -38.34375 C 11.492188 -42.78125 16.617188 -45 22.765625 -45 C 29.941406 -45 35.617188 -42.476562 39.796875 -37.4375 L 33.203125 -30.203125 C 30.847656 -33.992188 27.566406 -35.890625 23.359375 -35.890625 C 20.242188 -35.890625 17.585938 -34.539062 15.390625 -31.84375 C 13.203125 -29.144531 12.109375 -25.882812 12.109375 -22.0625 C 12.109375 -18.3125 13.203125 -15.109375 15.390625 -12.453125 C 17.585938 -9.796875 20.242188 -8.46875 23.359375 -8.46875 C 25.921875 -8.46875 28.15625 -9.242188 30.0625 -10.796875 C 31.976562 -12.347656 32.9375 -14.410156 32.9375 -16.984375 L 22.765625 -16.984375 L 22.765625 -24.75 Z M 43.171875 -24.75 "/></g></g></g><g fill="#ffffff" fill-opacity="1"><g transform="translate(168.910309, 238.649812)"><g><path d="M 13.28125 -44.1875 L 13.28125 0 L 3.21875 0 L 3.21875 -44.1875 Z M 13.28125 -44.1875 "/></g></g></g><g fill="#ffffff" fill-opacity="1"><g transform="translate(180.851445, 238.649812)"><g><path d="M 19.5 -45 C 21.882812 -45 24.21875 -44.648438 26.5 -43.953125 C 28.789062 -43.253906 30.492188 -42.566406 31.609375 -41.890625 L 33.203125 -40.8125 L 29.140625 -32.78125 C 28.816406 -33 28.367188 -33.273438 27.796875 -33.609375 C 27.222656 -33.953125 26.148438 -34.40625 24.578125 -34.96875 C 23.015625 -35.539062 21.550781 -35.828125 20.1875 -35.828125 C 18.507812 -35.828125 17.210938 -35.46875 16.296875 -34.75 C 15.390625 -34.039062 14.9375 -33.082031 14.9375 -31.875 C 14.9375 -31.257812 15.148438 -30.691406 15.578125 -30.171875 C 16.015625 -29.660156 16.75 -29.109375 17.78125 -28.515625 C 18.820312 -27.929688 19.734375 -27.457031 20.515625 -27.09375 C 21.296875 -26.738281 22.507812 -26.207031 24.15625 -25.5 C 27.007812 -24.28125 29.445312 -22.625 31.46875 -20.53125 C 33.488281 -18.445312 34.5 -16.082031 34.5 -13.4375 C 34.5 -10.90625 34.039062 -8.691406 33.125 -6.796875 C 32.21875 -4.910156 30.96875 -3.429688 29.375 -2.359375 C 27.789062 -1.285156 26.03125 -0.492188 24.09375 0.015625 C 22.164062 0.535156 20.082031 0.796875 17.84375 0.796875 C 15.90625 0.796875 14.007812 0.597656 12.15625 0.203125 C 10.300781 -0.179688 8.75 -0.664062 7.5 -1.25 C 6.25 -1.84375 5.125 -2.425781 4.125 -3 C 3.125 -3.570312 2.390625 -4.054688 1.921875 -4.453125 L 1.234375 -5.03125 L 6.265625 -13.5 C 6.691406 -13.144531 7.28125 -12.6875 8.03125 -12.125 C 8.78125 -11.570312 10.109375 -10.832031 12.015625 -9.90625 C 13.929688 -8.976562 15.625 -8.515625 17.09375 -8.515625 C 21.332031 -8.515625 23.453125 -9.960938 23.453125 -12.859375 C 23.453125 -13.460938 23.300781 -14.019531 23 -14.53125 C 22.695312 -15.050781 22.160156 -15.570312 21.390625 -16.09375 C 20.628906 -16.613281 19.953125 -17.023438 19.359375 -17.328125 C 18.773438 -17.628906 17.8125 -18.09375 16.46875 -18.71875 C 15.132812 -19.34375 14.144531 -19.816406 13.5 -20.140625 C 10.820312 -21.460938 8.75 -23.113281 7.28125 -25.09375 C 5.820312 -27.070312 5.09375 -29.207031 5.09375 -31.5 C 5.09375 -35.457031 6.554688 -38.695312 9.484375 -41.21875 C 12.410156 -43.738281 15.75 -45 19.5 -45 Z M 19.5 -45 "/></g></g></g><g fill="#ffffff" fill-opacity="1"><g transform="translate(212.286105, 238.649812)"><g><path d="M 0.421875 -35.34375 L 0.421875 -44.1875 L 31.5 -44.1875 L 31.5 -35.34375 L 21 -35.34375 L 21 0 L 10.921875 0 L 10.921875 -35.34375 Z M 0.421875 -35.34375 "/></g></g></g><g fill="#ffffff" fill-opacity="1"><g transform="translate(239.650682, 238.649812)"><g><path d="M 13.28125 -44.1875 L 13.28125 0 L 3.21875 0 L 3.21875 -44.1875 Z M 13.28125 -44.1875 "/></g></g></g><g fill="#ffffff" fill-opacity="1"><g transform="translate(251.591818, 238.649812)"><g><path d="M 28.5 -44.1875 L 28.5 -35.34375 L 13.28125 -35.34375 L 13.28125 -26.5625 L 27.859375 -26.5625 L 27.859375 -17.734375 L 13.28125 -17.734375 L 13.28125 -8.84375 L 28.5 -8.84375 L 28.5 0 L 3.21875 0 L 3.21875 -44.1875 Z M 28.5 -44.1875 "/></g></g></g><g fill="#ffffff" fill-opacity="1"><g transform="translate(278.099521, 238.649812)"><g><path d="M 43.4375 0 L 29.5625 0 L 13.28125 -18.75 L 13.28125 0 L 3.21875 0 L 3.21875 -44.1875 L 13.28125 -44.1875 L 13.28125 -26.140625 L 28.4375 -44.1875 L 40.65625 -44.1875 L 22.875 -23.25 Z M 43.4375 0 "/></g></g></g></svg>