<svg xmlns="http://www.w3.org/2000/svg" xmlns:xlink="http://www.w3.org/1999/xlink" width="500" zoomAndPan="magnify" viewBox="0 0 375 374.999991" height="500" preserveAspectRatio="xMidYMid meet" version="1.0"><defs><clipPath id="e2948dab49"><path d="M 47.445312 283 L 158 283 L 158 370.507812 L 47.445312 370.507812 Z M 47.445312 283 " clip-rule="nonzero"/></clipPath><clipPath id="ac905b4d8b"><path d="M 126 4.507812 L 327.195312 4.507812 L 327.195312 236 L 126 236 Z M 126 4.507812 " clip-rule="nonzero"/></clipPath></defs><g clip-path="url(#e2948dab49)"><path fill="#ffffff" d="M 152.074219 370.488281 L 52.644531 370.488281 C 52.304688 370.488281 51.96875 370.457031 51.636719 370.390625 C 51.304688 370.324219 50.980469 370.226562 50.667969 370.097656 C 50.355469 369.964844 50.058594 369.808594 49.777344 369.621094 C 49.496094 369.429688 49.234375 369.21875 48.996094 368.976562 C 48.757812 368.738281 48.542969 368.476562 48.355469 368.195312 C 48.164062 367.914062 48.007812 367.617188 47.878906 367.304688 C 47.746094 366.992188 47.648438 366.667969 47.582031 366.335938 C 47.515625 366.003906 47.484375 365.667969 47.484375 365.328125 L 47.484375 336.152344 C 47.484375 307.339844 70.925781 283.902344 99.738281 283.902344 L 104.976562 283.902344 C 133.789062 283.902344 157.230469 307.339844 157.230469 336.152344 L 157.230469 365.328125 C 157.230469 365.667969 157.199219 366.003906 157.132812 366.335938 C 157.066406 366.667969 156.96875 366.992188 156.839844 367.304688 C 156.710938 367.617188 156.550781 367.914062 156.363281 368.195312 C 156.175781 368.476562 155.960938 368.738281 155.722656 368.976562 C 155.480469 369.21875 155.222656 369.429688 154.9375 369.621094 C 154.65625 369.808594 154.359375 369.964844 154.046875 370.097656 C 153.734375 370.226562 153.410156 370.324219 153.078125 370.390625 C 152.746094 370.457031 152.410156 370.488281 152.074219 370.488281 Z M 57.804688 360.171875 L 146.914062 360.171875 L 146.914062 336.152344 C 146.910156 334.78125 146.84375 333.410156 146.707031 332.046875 C 146.570312 330.679688 146.367188 329.324219 146.101562 327.976562 C 145.832031 326.628906 145.496094 325.300781 145.097656 323.984375 C 144.699219 322.671875 144.234375 321.382812 143.707031 320.113281 C 143.183594 318.84375 142.597656 317.605469 141.949219 316.394531 C 141.300781 315.183594 140.59375 314.007812 139.832031 312.867188 C 139.070312 311.726562 138.25 310.625 137.378906 309.5625 C 136.507812 308.503906 135.589844 307.484375 134.617188 306.515625 C 133.644531 305.542969 132.628906 304.625 131.570312 303.753906 C 130.507812 302.882812 129.40625 302.0625 128.265625 301.300781 C 127.125 300.539062 125.949219 299.832031 124.738281 299.183594 C 123.527344 298.535156 122.289062 297.949219 121.019531 297.425781 C 119.75 296.898438 118.460938 296.433594 117.148438 296.035156 C 115.832031 295.636719 114.503906 295.300781 113.15625 295.03125 C 111.808594 294.765625 110.453125 294.5625 109.085938 294.425781 C 107.722656 294.289062 106.351562 294.21875 104.980469 294.21875 L 99.738281 294.21875 C 98.367188 294.21875 96.996094 294.289062 95.628906 294.425781 C 94.261719 294.5625 92.90625 294.765625 91.5625 295.03125 C 90.214844 295.300781 88.882812 295.636719 87.570312 296.035156 C 86.257812 296.433594 84.964844 296.898438 83.699219 297.425781 C 82.429688 297.949219 81.191406 298.535156 79.980469 299.183594 C 78.769531 299.832031 77.59375 300.539062 76.453125 301.300781 C 75.308594 302.0625 74.210938 302.882812 73.148438 303.753906 C 72.085938 304.625 71.070312 305.542969 70.101562 306.515625 C 69.128906 307.484375 68.207031 308.503906 67.335938 309.5625 C 66.464844 310.625 65.648438 311.726562 64.886719 312.867188 C 64.121094 314.007812 63.417969 315.183594 62.769531 316.394531 C 62.121094 317.605469 61.535156 318.84375 61.007812 320.113281 C 60.480469 321.382812 60.019531 322.671875 59.621094 323.984375 C 59.21875 325.300781 58.886719 326.628906 58.617188 327.976562 C 58.347656 329.324219 58.144531 330.679688 58.007812 332.046875 C 57.875 333.410156 57.804688 334.78125 57.804688 336.152344 Z M 57.804688 360.171875 " fill-opacity="1" fill-rule="nonzero"/></g><path fill="#ffffff" d="M 102.394531 277.851562 C 101.363281 277.851562 100.332031 277.800781 99.304688 277.699219 C 98.277344 277.597656 97.257812 277.449219 96.242188 277.246094 C 95.230469 277.042969 94.230469 276.792969 93.242188 276.496094 C 92.253906 276.195312 91.285156 275.847656 90.328125 275.453125 C 89.375 275.058594 88.441406 274.617188 87.53125 274.128906 C 86.621094 273.640625 85.738281 273.113281 84.878906 272.539062 C 84.019531 271.964844 83.191406 271.351562 82.394531 270.695312 C 81.59375 270.039062 80.832031 269.347656 80.101562 268.617188 C 79.371094 267.886719 78.679688 267.125 78.023438 266.324219 C 77.367188 265.527344 76.753906 264.699219 76.179688 263.839844 C 75.605469 262.980469 75.074219 262.097656 74.589844 261.1875 C 74.101562 260.273438 73.660156 259.34375 73.265625 258.390625 C 72.871094 257.433594 72.523438 256.464844 72.222656 255.476562 C 71.925781 254.488281 71.671875 253.488281 71.472656 252.472656 C 71.269531 251.460938 71.121094 250.441406 71.019531 249.414062 C 70.917969 248.386719 70.867188 247.355469 70.867188 246.324219 C 70.867188 245.289062 70.917969 244.261719 71.019531 243.234375 C 71.121094 242.207031 71.269531 241.183594 71.472656 240.171875 C 71.671875 239.160156 71.925781 238.160156 72.222656 237.171875 C 72.523438 236.183594 72.871094 235.210938 73.265625 234.257812 C 73.660156 233.304688 74.101562 232.371094 74.589844 231.460938 C 75.074219 230.550781 75.605469 229.664062 76.179688 228.808594 C 76.753906 227.949219 77.367188 227.121094 78.023438 226.320312 C 78.679688 225.523438 79.371094 224.757812 80.101562 224.027344 C 80.832031 223.300781 81.59375 222.605469 82.394531 221.953125 C 83.191406 221.296875 84.019531 220.683594 84.878906 220.109375 C 85.738281 219.535156 86.621094 219.003906 87.53125 218.515625 C 88.441406 218.03125 89.375 217.589844 90.328125 217.195312 C 91.285156 216.800781 92.253906 216.453125 93.242188 216.152344 C 94.230469 215.851562 95.230469 215.601562 96.242188 215.402344 C 97.257812 215.199219 98.277344 215.046875 99.304688 214.945312 C 100.332031 214.84375 101.363281 214.792969 102.394531 214.792969 C 103.425781 214.792969 104.457031 214.84375 105.484375 214.945312 C 106.511719 215.046875 107.53125 215.199219 108.546875 215.402344 C 109.558594 215.601562 110.558594 215.851562 111.546875 216.152344 C 112.535156 216.453125 113.507812 216.800781 114.460938 217.195312 C 115.414062 217.589844 116.347656 218.03125 117.257812 218.515625 C 118.167969 219.003906 119.054688 219.535156 119.910156 220.109375 C 120.769531 220.683594 121.597656 221.296875 122.398438 221.953125 C 123.195312 222.605469 123.957031 223.300781 124.6875 224.027344 C 125.417969 224.757812 126.113281 225.523438 126.765625 226.320312 C 127.421875 227.121094 128.035156 227.949219 128.609375 228.808594 C 129.183594 229.664062 129.714844 230.550781 130.199219 231.460938 C 130.6875 232.371094 131.128906 233.304688 131.523438 234.257812 C 131.917969 235.210938 132.265625 236.183594 132.566406 237.171875 C 132.867188 238.160156 133.117188 239.160156 133.316406 240.171875 C 133.519531 241.183594 133.671875 242.207031 133.773438 243.234375 C 133.875 244.261719 133.921875 245.289062 133.921875 246.324219 C 133.921875 247.355469 133.871094 248.386719 133.769531 249.414062 C 133.667969 250.441406 133.515625 251.460938 133.3125 252.472656 C 133.109375 253.484375 132.859375 254.484375 132.558594 255.472656 C 132.257812 256.460938 131.910156 257.429688 131.515625 258.382812 C 131.117188 259.335938 130.675781 260.269531 130.191406 261.179688 C 129.703125 262.089844 129.171875 262.972656 128.597656 263.832031 C 128.027344 264.6875 127.410156 265.515625 126.757812 266.316406 C 126.101562 267.113281 125.410156 267.878906 124.679688 268.605469 C 123.949219 269.335938 123.183594 270.03125 122.386719 270.683594 C 121.589844 271.339844 120.761719 271.953125 119.902344 272.527344 C 119.042969 273.101562 118.160156 273.632812 117.25 274.117188 C 116.339844 274.605469 115.410156 275.046875 114.453125 275.441406 C 113.5 275.839844 112.53125 276.1875 111.542969 276.488281 C 110.554688 276.785156 109.554688 277.039062 108.542969 277.242188 C 107.53125 277.441406 106.511719 277.59375 105.484375 277.695312 C 104.457031 277.800781 103.425781 277.851562 102.394531 277.851562 Z M 102.394531 225.113281 C 101.699219 225.113281 101.007812 225.148438 100.316406 225.214844 C 99.625 225.285156 98.9375 225.386719 98.257812 225.519531 C 97.574219 225.65625 96.902344 225.824219 96.238281 226.027344 C 95.574219 226.230469 94.921875 226.460938 94.277344 226.726562 C 93.636719 226.992188 93.007812 227.289062 92.398438 227.617188 C 91.785156 227.945312 91.1875 228.300781 90.609375 228.6875 C 90.035156 229.074219 89.476562 229.488281 88.9375 229.929688 C 88.402344 230.367188 87.886719 230.835938 87.398438 231.324219 C 86.90625 231.816406 86.441406 232.332031 86 232.867188 C 85.558594 233.40625 85.144531 233.960938 84.757812 234.539062 C 84.375 235.117188 84.015625 235.710938 83.6875 236.324219 C 83.363281 236.9375 83.066406 237.566406 82.800781 238.207031 C 82.535156 238.847656 82.300781 239.503906 82.097656 240.167969 C 81.898438 240.832031 81.726562 241.503906 81.59375 242.1875 C 81.457031 242.867188 81.355469 243.554688 81.285156 244.246094 C 81.21875 244.9375 81.183594 245.628906 81.183594 246.324219 C 81.183594 247.019531 81.21875 247.710938 81.285156 248.402344 C 81.355469 249.09375 81.457031 249.78125 81.59375 250.460938 C 81.726562 251.144531 81.898438 251.816406 82.097656 252.480469 C 82.300781 253.144531 82.535156 253.796875 82.800781 254.441406 C 83.066406 255.082031 83.363281 255.710938 83.6875 256.320312 C 84.015625 256.933594 84.375 257.53125 84.757812 258.109375 C 85.144531 258.683594 85.558594 259.242188 86 259.78125 C 86.441406 260.316406 86.90625 260.832031 87.398438 261.320312 C 87.886719 261.8125 88.402344 262.277344 88.9375 262.71875 C 89.476562 263.160156 90.035156 263.574219 90.609375 263.960938 C 91.1875 264.34375 91.785156 264.703125 92.398438 265.03125 C 93.007812 265.355469 93.636719 265.652344 94.277344 265.917969 C 94.921875 266.183594 95.574219 266.417969 96.238281 266.621094 C 96.902344 266.820312 97.574219 266.992188 98.257812 267.125 C 98.9375 267.261719 99.625 267.363281 100.316406 267.433594 C 101.007812 267.5 101.699219 267.535156 102.394531 267.535156 C 103.089844 267.535156 103.78125 267.5 104.472656 267.433594 C 105.164062 267.363281 105.851562 267.261719 106.53125 267.125 C 107.214844 266.992188 107.886719 266.824219 108.550781 266.621094 C 109.214844 266.417969 109.871094 266.183594 110.511719 265.917969 C 111.152344 265.652344 111.78125 265.355469 112.394531 265.03125 C 113.007812 264.703125 113.601562 264.34375 114.179688 263.960938 C 114.757812 263.574219 115.3125 263.160156 115.851562 262.71875 C 116.386719 262.277344 116.902344 261.8125 117.394531 261.320312 C 117.882812 260.832031 118.351562 260.316406 118.789062 259.78125 C 119.230469 259.242188 119.644531 258.683594 120.03125 258.109375 C 120.417969 257.53125 120.773438 256.933594 121.101562 256.320312 C 121.429688 255.710938 121.726562 255.082031 121.992188 254.441406 C 122.257812 253.796875 122.488281 253.144531 122.691406 252.480469 C 122.894531 251.816406 123.0625 251.144531 123.199219 250.460938 C 123.332031 249.78125 123.433594 249.09375 123.503906 248.402344 C 123.570312 247.710938 123.605469 247.019531 123.605469 246.324219 C 123.605469 245.628906 123.570312 244.9375 123.5 244.246094 C 123.433594 243.554688 123.328125 242.867188 123.195312 242.1875 C 123.058594 241.507812 122.886719 240.832031 122.6875 240.167969 C 122.484375 239.503906 122.25 238.851562 121.984375 238.210938 C 121.71875 237.570312 121.421875 236.941406 121.09375 236.332031 C 120.765625 235.71875 120.410156 235.125 120.023438 234.546875 C 119.636719 233.96875 119.222656 233.410156 118.785156 232.875 C 118.34375 232.339844 117.875 231.824219 117.386719 231.332031 C 116.894531 230.84375 116.382812 230.375 115.84375 229.933594 C 115.308594 229.496094 114.75 229.082031 114.171875 228.695312 C 113.597656 228.308594 113 227.953125 112.390625 227.625 C 111.777344 227.296875 111.148438 227 110.507812 226.734375 C 109.867188 226.46875 109.214844 226.234375 108.550781 226.03125 C 107.886719 225.832031 107.210938 225.660156 106.53125 225.523438 C 105.851562 225.390625 105.164062 225.285156 104.472656 225.21875 C 103.78125 225.148438 103.089844 225.113281 102.394531 225.113281 Z M 102.394531 225.113281 " fill-opacity="1" fill-rule="nonzero"/><g clip-path="url(#ac905b4d8b)"><path fill="#ffffff" d="M 184.929688 235.847656 C 184.507812 235.847656 184.09375 235.796875 183.683594 235.695312 C 183.273438 235.59375 182.882812 235.441406 182.507812 235.246094 C 182.136719 235.046875 181.792969 234.804688 181.480469 234.523438 C 181.164062 234.242188 180.890625 233.925781 180.652344 233.574219 C 180.417969 233.226562 180.226562 232.851562 180.082031 232.457031 C 179.9375 232.058594 179.84375 231.652344 179.800781 231.230469 C 179.753906 230.8125 179.761719 230.390625 179.820312 229.972656 C 179.878906 229.554688 179.988281 229.152344 180.144531 228.757812 L 192.414062 198.359375 L 165.558594 198.359375 C 164.285156 198.359375 163.015625 198.296875 161.746094 198.167969 C 160.480469 198.042969 159.222656 197.855469 157.972656 197.605469 C 156.722656 197.355469 155.488281 197.046875 154.269531 196.675781 C 153.050781 196.304688 151.851562 195.875 150.675781 195.386719 C 149.496094 194.898438 148.347656 194.351562 147.222656 193.753906 C 146.101562 193.152344 145.007812 192.496094 143.949219 191.789062 C 142.890625 191.082031 141.871094 190.320312 140.882812 189.511719 C 139.898438 188.703125 138.957031 187.851562 138.054688 186.949219 C 137.15625 186.046875 136.300781 185.105469 135.492188 184.121094 C 134.683594 183.136719 133.925781 182.113281 133.21875 181.054688 C 132.507812 179.996094 131.855469 178.902344 131.253906 177.78125 C 130.652344 176.65625 130.105469 175.507812 129.617188 174.332031 C 129.128906 173.152344 128.699219 171.957031 128.332031 170.738281 C 127.960938 169.515625 127.648438 168.285156 127.398438 167.035156 C 127.148438 165.785156 126.960938 164.527344 126.835938 163.257812 C 126.710938 161.988281 126.644531 160.71875 126.644531 159.445312 L 126.644531 43.425781 C 126.644531 42.152344 126.710938 40.878906 126.835938 39.613281 C 126.960938 38.34375 127.148438 37.085938 127.398438 35.835938 C 127.648438 34.585938 127.960938 33.351562 128.332031 32.132812 C 128.703125 30.914062 129.128906 29.714844 129.617188 28.539062 C 130.105469 27.363281 130.652344 26.210938 131.253906 25.089844 C 131.855469 23.964844 132.507812 22.875 133.21875 21.816406 C 133.925781 20.757812 134.683594 19.734375 135.492188 18.75 C 136.300781 17.765625 137.15625 16.820312 138.054688 15.921875 C 138.957031 15.019531 139.898438 14.164062 140.882812 13.355469 C 141.871094 12.546875 142.890625 11.789062 143.949219 11.082031 C 145.007812 10.375 146.101562 9.71875 147.222656 9.117188 C 148.347656 8.515625 149.5 7.972656 150.675781 7.484375 C 151.851562 6.996094 153.050781 6.566406 154.269531 6.195312 C 155.488281 5.824219 156.722656 5.515625 157.972656 5.265625 C 159.222656 5.015625 160.480469 4.828125 161.746094 4.699219 C 163.015625 4.574219 164.285156 4.511719 165.558594 4.507812 L 288.605469 4.507812 C 289.878906 4.511719 291.148438 4.574219 292.417969 4.699219 C 293.683594 4.828125 294.945312 5.015625 296.191406 5.265625 C 297.441406 5.515625 298.675781 5.824219 299.894531 6.195312 C 301.113281 6.566406 302.3125 6.996094 303.488281 7.484375 C 304.667969 7.972656 305.816406 8.515625 306.941406 9.117188 C 308.0625 9.71875 309.15625 10.375 310.214844 11.082031 C 311.273438 11.789062 312.296875 12.546875 313.28125 13.355469 C 314.265625 14.164062 315.207031 15.019531 316.109375 15.921875 C 317.007812 16.820312 317.863281 17.765625 318.671875 18.75 C 319.480469 19.734375 320.238281 20.757812 320.949219 21.816406 C 321.65625 22.875 322.308594 23.964844 322.910156 25.089844 C 323.511719 26.210938 324.058594 27.363281 324.546875 28.539062 C 325.035156 29.714844 325.464844 30.914062 325.835938 32.132812 C 326.203125 33.351562 326.515625 34.585938 326.765625 35.835938 C 327.015625 37.085938 327.203125 38.34375 327.328125 39.613281 C 327.453125 40.878906 327.519531 42.152344 327.519531 43.425781 L 327.519531 159.445312 C 327.519531 160.71875 327.453125 161.988281 327.328125 163.257812 C 327.203125 164.523438 327.015625 165.785156 326.765625 167.03125 C 326.515625 168.28125 326.203125 169.515625 325.835938 170.734375 C 325.464844 171.953125 325.035156 173.152344 324.546875 174.328125 C 324.058594 175.507812 323.511719 176.65625 322.910156 177.78125 C 322.308594 178.902344 321.65625 179.996094 320.949219 181.054688 C 320.238281 182.113281 319.480469 183.136719 318.671875 184.121094 C 317.863281 185.105469 317.007812 186.046875 316.109375 186.949219 C 315.207031 187.847656 314.265625 188.703125 313.28125 189.511719 C 312.296875 190.320312 311.273438 191.078125 310.214844 191.789062 C 309.15625 192.496094 308.0625 193.148438 306.941406 193.75 C 305.816406 194.351562 304.667969 194.898438 303.488281 195.386719 C 302.3125 195.875 301.113281 196.304688 299.894531 196.671875 C 298.675781 197.042969 297.441406 197.355469 296.191406 197.605469 C 294.945312 197.855469 293.683594 198.042969 292.417969 198.167969 C 291.148438 198.292969 289.878906 198.359375 288.605469 198.359375 L 241.394531 198.359375 L 187.839844 234.949219 C 186.964844 235.546875 185.992188 235.847656 184.929688 235.847656 Z M 165.558594 14.828125 C 164.625 14.828125 163.691406 14.875 162.757812 14.96875 C 161.828125 15.058594 160.902344 15.199219 159.984375 15.382812 C 159.066406 15.566406 158.160156 15.792969 157.261719 16.066406 C 156.367188 16.339844 155.488281 16.652344 154.621094 17.011719 C 153.757812 17.371094 152.910156 17.773438 152.085938 18.214844 C 151.261719 18.65625 150.457031 19.136719 149.679688 19.65625 C 148.902344 20.175781 148.152344 20.734375 147.425781 21.328125 C 146.703125 21.921875 146.011719 22.550781 145.347656 23.210938 C 144.6875 23.875 144.058594 24.566406 143.464844 25.292969 C 142.871094 26.015625 142.3125 26.765625 141.792969 27.542969 C 141.273438 28.324219 140.792969 29.125 140.351562 29.949219 C 139.90625 30.777344 139.507812 31.621094 139.148438 32.484375 C 138.789062 33.351562 138.472656 34.230469 138.203125 35.125 C 137.929688 36.023438 137.703125 36.929688 137.519531 37.847656 C 137.335938 38.765625 137.195312 39.691406 137.105469 40.621094 C 137.011719 41.554688 136.964844 42.488281 136.964844 43.425781 L 136.964844 159.445312 C 136.964844 160.378906 137.011719 161.3125 137.105469 162.246094 C 137.195312 163.175781 137.335938 164.101562 137.519531 165.019531 C 137.703125 165.9375 137.929688 166.84375 138.203125 167.742188 C 138.472656 168.636719 138.789062 169.515625 139.148438 170.382812 C 139.507812 171.246094 139.90625 172.09375 140.351562 172.917969 C 140.792969 173.742188 141.273438 174.546875 141.792969 175.324219 C 142.3125 176.101562 142.871094 176.851562 143.464844 177.578125 C 144.058594 178.300781 144.6875 178.992188 145.347656 179.65625 C 146.011719 180.316406 146.703125 180.945312 147.425781 181.539062 C 148.152344 182.132812 148.902344 182.691406 149.679688 183.210938 C 150.457031 183.730469 151.261719 184.210938 152.085938 184.65625 C 152.910156 185.097656 153.757812 185.496094 154.621094 185.855469 C 155.488281 186.214844 156.367188 186.53125 157.261719 186.800781 C 158.160156 187.074219 159.066406 187.300781 159.984375 187.484375 C 160.902344 187.667969 161.828125 187.808594 162.757812 187.898438 C 163.691406 187.992188 164.625 188.039062 165.558594 188.039062 L 200.058594 188.039062 C 200.480469 188.039062 200.894531 188.09375 201.304688 188.195312 C 201.714844 188.296875 202.105469 188.445312 202.480469 188.644531 C 202.851562 188.84375 203.195312 189.082031 203.507812 189.367188 C 203.824219 189.648438 204.097656 189.964844 204.332031 190.3125 C 204.570312 190.664062 204.761719 191.039062 204.90625 191.433594 C 205.050781 191.832031 205.144531 192.238281 205.1875 192.660156 C 205.230469 193.078125 205.226562 193.496094 205.167969 193.914062 C 205.109375 194.335938 205 194.738281 204.839844 195.128906 L 196.09375 216.8125 L 236.890625 188.941406 C 237.765625 188.339844 238.738281 188.039062 239.800781 188.039062 L 288.605469 188.039062 C 289.542969 188.039062 290.476562 187.992188 291.40625 187.898438 C 292.339844 187.808594 293.261719 187.667969 294.183594 187.484375 C 295.101562 187.300781 296.007812 187.074219 296.902344 186.800781 C 297.796875 186.53125 298.679688 186.214844 299.542969 185.855469 C 300.40625 185.496094 301.253906 185.097656 302.078125 184.65625 C 302.90625 184.210938 303.707031 183.730469 304.484375 183.210938 C 305.261719 182.691406 306.015625 182.132812 306.738281 181.539062 C 307.460938 180.945312 308.15625 180.316406 308.816406 179.65625 C 309.476562 178.992188 310.105469 178.300781 310.699219 177.578125 C 311.292969 176.851562 311.851562 176.101562 312.371094 175.324219 C 312.894531 174.546875 313.375 173.742188 313.816406 172.917969 C 314.257812 172.09375 314.65625 171.246094 315.015625 170.382812 C 315.375 169.515625 315.691406 168.636719 315.964844 167.742188 C 316.234375 166.84375 316.464844 165.9375 316.648438 165.019531 C 316.832031 164.101562 316.96875 163.175781 317.0625 162.246094 C 317.152344 161.3125 317.199219 160.378906 317.203125 159.445312 L 317.203125 43.425781 C 317.199219 42.488281 317.152344 41.554688 317.0625 40.625 C 316.96875 39.691406 316.832031 38.765625 316.648438 37.847656 C 316.464844 36.929688 316.234375 36.023438 315.964844 35.128906 C 315.691406 34.230469 315.375 33.351562 315.015625 32.488281 C 314.65625 31.621094 314.257812 30.777344 313.816406 29.953125 C 313.375 29.125 312.894531 28.324219 312.371094 27.546875 C 311.851562 26.765625 311.292969 26.015625 310.699219 25.292969 C 310.105469 24.570312 309.476562 23.875 308.816406 23.214844 C 308.15625 22.550781 307.460938 21.921875 306.738281 21.328125 C 306.015625 20.734375 305.261719 20.179688 304.484375 19.65625 C 303.707031 19.136719 302.90625 18.65625 302.078125 18.214844 C 301.253906 17.773438 300.410156 17.371094 299.542969 17.015625 C 298.679688 16.65625 297.796875 16.339844 296.902344 16.066406 C 296.007812 15.792969 295.101562 15.566406 294.183594 15.382812 C 293.261719 15.199219 292.339844 15.0625 291.40625 14.96875 C 290.476562 14.875 289.542969 14.828125 288.605469 14.828125 Z M 165.558594 14.828125 " fill-opacity="1" fill-rule="nonzero"/></g><path fill="#ffffff" d="M 255.847656 35.203125 C 251.074219 30.453125 242.320312 24.789062 227.71875 24.789062 C 219.722656 24.789062 211.222656 26.585938 204.402344 29.714844 C 203.585938 30.09375 202.808594 30.535156 202.070312 31.042969 C 201.328125 31.550781 200.636719 32.117188 199.992188 32.742188 C 199.347656 33.371094 198.761719 34.046875 198.230469 34.769531 C 197.703125 35.496094 197.238281 36.261719 196.835938 37.066406 C 196.4375 37.867188 196.109375 38.699219 195.847656 39.5625 C 195.589844 40.421875 195.40625 41.296875 195.296875 42.1875 C 195.183594 43.078125 195.152344 43.972656 195.191406 44.871094 C 195.234375 45.769531 195.351562 46.65625 195.542969 47.53125 C 195.734375 48.410156 196 49.265625 196.339844 50.097656 C 196.675781 50.929688 197.082031 51.726562 197.554688 52.492188 C 198.027344 53.253906 198.558594 53.972656 199.152344 54.644531 C 199.75 55.320312 200.394531 55.9375 201.09375 56.5 C 201.792969 57.0625 202.535156 57.566406 203.320312 58.003906 C 204.105469 58.4375 204.921875 58.808594 205.769531 59.105469 C 206.613281 59.40625 207.480469 59.632812 208.367188 59.78125 C 209.25 59.933594 210.144531 60.011719 211.042969 60.011719 C 213.121094 60.011719 215.125 59.617188 217.046875 58.824219 C 219.492188 57.832031 222.035156 57.320312 224.675781 57.28125 C 227.28125 57.335938 228.8125 57.921875 229.378906 58.457031 C 229.988281 59.03125 230.078125 60.371094 230.078125 61.121094 C 230.078125 64.90625 227.621094 69.210938 221.007812 77 L 220.945312 77.074219 C 211.433594 88.488281 207.09375 100.945312 208.390625 113.113281 L 208.414062 113.429688 C 208.480469 114.328125 208.632812 115.210938 208.867188 116.082031 C 209.105469 116.953125 209.417969 117.792969 209.808594 118.605469 C 210.203125 119.417969 210.667969 120.1875 211.203125 120.910156 C 211.738281 121.636719 212.339844 122.304688 213 122.917969 C 213.660156 123.527344 214.375 124.074219 215.136719 124.554688 C 215.902344 125.03125 216.703125 125.4375 217.542969 125.765625 C 218.382812 126.09375 219.246094 126.34375 220.128906 126.511719 C 221.015625 126.679688 221.910156 126.761719 222.8125 126.761719 L 227.550781 126.761719 C 228.039062 126.761719 228.519531 126.738281 229.003906 126.6875 C 229.484375 126.640625 229.964844 126.566406 230.4375 126.46875 C 230.914062 126.375 231.382812 126.253906 231.84375 126.109375 C 232.308594 125.964844 232.761719 125.796875 233.207031 125.609375 C 233.652344 125.417969 234.089844 125.207031 234.511719 124.972656 C 234.9375 124.738281 235.347656 124.484375 235.746094 124.210938 C 236.148438 123.9375 236.53125 123.640625 236.898438 123.328125 C 237.269531 123.015625 237.621094 122.683594 237.957031 122.332031 C 238.292969 121.984375 238.613281 121.621094 238.910156 121.238281 C 239.210938 120.855469 239.488281 120.460938 239.75 120.054688 C 240.007812 119.644531 240.246094 119.222656 240.464844 118.789062 C 240.679688 118.355469 240.875 117.914062 241.046875 117.460938 C 241.21875 117.007812 241.371094 116.546875 241.496094 116.078125 C 241.621094 115.609375 241.722656 115.136719 241.800781 114.660156 C 241.882812 114.183594 241.933594 113.699219 241.964844 113.21875 C 241.996094 112.734375 242 112.25 241.980469 111.765625 C 241.980469 111.695312 241.976562 111.625 241.972656 111.554688 C 241.683594 106.671875 242.757812 101.921875 248.933594 94.625 L 248.949219 94.605469 C 256.339844 85.832031 265.53125 74.910156 265.53125 59.3125 C 265.53125 49.980469 262.09375 41.421875 255.847656 35.203125 Z M 241.054688 87.957031 C 233.808594 96.519531 231.175781 103.765625 231.671875 112.160156 C 231.679688 112.4375 231.664062 112.714844 231.617188 112.988281 C 231.574219 113.261719 231.503906 113.527344 231.402344 113.785156 C 231.304688 114.046875 231.179688 114.292969 231.03125 114.527344 C 230.882812 114.761719 230.714844 114.976562 230.523438 115.179688 C 230.328125 115.378906 230.117188 115.554688 229.890625 115.714844 C 229.664062 115.871094 229.421875 116.003906 229.164062 116.113281 C 228.910156 116.222656 228.648438 116.304688 228.375 116.359375 C 228.101562 116.414062 227.828125 116.441406 227.550781 116.441406 L 222.808594 116.441406 C 222.289062 116.441406 221.789062 116.347656 221.304688 116.15625 C 220.820312 115.96875 220.390625 115.699219 220.007812 115.34375 C 219.628906 114.992188 219.324219 114.582031 219.097656 114.113281 C 218.871094 113.644531 218.738281 113.152344 218.699219 112.636719 L 218.664062 112.160156 C 217.675781 103.269531 220.636719 93.554688 228.871094 83.675781 C 236.277344 74.953125 240.394531 68.53125 240.394531 61.121094 C 240.394531 52.726562 235.125 47.125 224.753906 46.960938 C 220.730469 46.992188 216.851562 47.765625 213.121094 49.28125 C 212.457031 49.554688 211.761719 49.691406 211.042969 49.695312 C 210.410156 49.691406 209.792969 49.585938 209.199219 49.375 C 208.601562 49.164062 208.058594 48.859375 207.566406 48.464844 C 207.074219 48.066406 206.660156 47.601562 206.328125 47.0625 C 205.992188 46.523438 205.757812 45.945312 205.625 45.328125 C 205.488281 44.710938 205.457031 44.089844 205.535156 43.460938 C 205.609375 42.832031 205.789062 42.234375 206.070312 41.667969 C 206.351562 41.101562 206.714844 40.597656 207.167969 40.15625 C 207.621094 39.714844 208.132812 39.359375 208.707031 39.09375 C 214.078125 36.628906 221.085938 35.109375 227.71875 35.109375 C 246.652344 35.109375 255.214844 46.796875 255.214844 59.3125 C 255.214844 70.503906 248.957031 78.574219 241.054688 87.957031 Z M 241.054688 87.957031 " fill-opacity="1" fill-rule="nonzero"/><path fill="#ffffff" d="M 225.25 134.027344 C 213.734375 134.027344 205.054688 142.921875 205.054688 154.71875 C 205.023438 157.363281 205.480469 159.917969 206.425781 162.390625 C 207.371094 164.859375 208.734375 167.070312 210.523438 169.019531 C 211.453125 170.015625 212.476562 170.90625 213.59375 171.6875 C 214.710938 172.46875 215.894531 173.128906 217.148438 173.664062 C 218.402344 174.199219 219.699219 174.601562 221.035156 174.867188 C 222.371094 175.132812 223.722656 175.257812 225.085938 175.246094 C 236.601562 175.246094 245.28125 166.417969 245.28125 154.71875 C 245.28125 142.921875 236.667969 134.027344 225.25 134.027344 Z M 225.085938 164.925781 C 219.324219 164.925781 215.371094 160.480469 215.371094 154.71875 C 215.371094 148.625 219.488281 144.34375 225.25 144.34375 C 231.011719 144.34375 234.964844 148.625 234.964844 154.71875 C 234.960938 160.480469 231.175781 164.925781 225.085938 164.925781 Z M 225.085938 164.925781 " fill-opacity="1" fill-rule="nonzero"/></svg>