<?xml version="1.0" standalone="no"?>
<!DOCTYPE svg PUBLIC "-//W3C//DTD SVG 20010904//EN"
 "http://www.w3.org/TR/2001/REC-SVG-20010904/DTD/svg10.dtd">
<svg version="1.0" xmlns="http://www.w3.org/2000/svg"
 width="960.000000pt" height="720.000000pt" viewBox="0 0 960.000000 720.000000"
 preserveAspectRatio="xMidYMid meet">
<metadata>
Created by potrace 1.16, written by Peter Selinger 2001-2019
</metadata>
<g transform="translate(0.000000,720.000000) scale(0.100000,-0.100000)"
fill="#000000" stroke="none">
<path d="M8320 7120 l0 -80 160 0 160 0 0 -40 0 -40 360 0 360 0 0 -40 0 -40
41 0 41 0 -4 80 -3 80 83 0 82 0 0 80 0 80 -640 0 -640 0 0 -80z"/>
<path d="M9018 6053 c-2 -76 -7 -146 -12 -155 -6 -13 -4 -18 8 -18 11 0 15 -8
14 -25 -1 -14 -9 -25 -16 -25 -10 0 -12 -6 -7 -17 18 -43 13 -47 -64 -56 -41
-4 -81 -12 -88 -16 -11 -6 -14 -59 -14 -257 l0 -249 35 -39 c20 -21 36 -43 36
-48 0 -4 27 -6 60 -4 34 3 60 1 60 -5 0 -5 -7 -9 -15 -9 -8 0 -15 -7 -15 -15
0 -8 -24 -32 -53 -54 -63 -46 -88 -81 -92 -127 -2 -37 7 -43 27 -16 21 27 87
74 97 67 6 -3 10 -113 11 -255 l1 -250 -48 -29 c-86 -54 -83 -49 -83 -124 0
-57 3 -68 15 -63 12 4 15 -4 15 -45 0 -27 -6 -60 -14 -72 -8 -12 -16 -53 -18
-92 l-3 -70 45 -21 c24 -12 53 -19 63 -16 18 5 19 1 12 -66 -6 -62 -5 -72 13
-90 11 -11 23 -18 26 -15 3 4 6 36 6 72 0 49 3 62 12 53 7 -7 10 -39 9 -83 -2
-48 1 -69 8 -64 6 3 11 20 11 37 0 18 7 36 18 44 16 13 16 13 0 14 -19 0 -22
11 -12 47 6 22 9 23 108 17 55 -4 107 -11 113 -16 9 -7 15 -5 19 6 3 9 17 16
30 16 13 0 24 5 24 10 0 9 -28 15 -57 11 -8 -1 -12 14 -10 49 1 45 9 63 19 43
2 -5 20 -17 41 -27 30 -15 37 -25 37 -48 0 -23 -9 -34 -47 -58 -65 -41 -80
-51 -120 -82 -19 -15 -54 -37 -79 -48 -40 -20 -44 -25 -44 -57 0 -32 2 -34 17
-22 11 10 14 10 9 2 -5 -9 0 -13 16 -14 16 -1 18 -3 6 -6 -9 -2 -19 -14 -21
-26 -3 -18 -5 -17 -6 6 0 16 -5 26 -11 22 -6 -3 -14 4 -19 17 -8 18 -10 19
-10 5 -1 -14 -6 -17 -21 -12 -14 4 -20 2 -20 -9 0 -12 -11 -14 -57 -10 -62 4
-44 -8 28 -20 43 -7 44 -9 59 -145 13 -115 13 -588 -1 -596 -8 -6 -14 34 -9
60 1 5 1 48 0 95 -2 47 -1 148 0 226 2 125 0 142 -15 148 -10 4 -15 12 -11 22
8 20 -49 44 -103 44 -39 0 -39 0 -46 -47 -10 -68 -6 -236 5 -247 7 -7 10 11
11 50 1 55 2 57 11 27 15 -44 3 -104 -19 -96 -10 4 -14 2 -10 -4 4 -6 0 -16
-8 -23 -8 -7 -15 -23 -15 -35 0 -21 2 -22 40 -12 27 8 40 17 42 31 2 15 11 22
33 24 25 2 27 1 13 -8 -10 -6 -18 -18 -18 -27 0 -14 2 -14 20 2 11 10 20 13
20 7 0 -7 -5 -12 -11 -12 -5 0 -9 -8 -7 -18 4 -23 -19 -52 -40 -52 -34 0 -58
-72 -27 -84 8 -3 15 -9 14 -13 -5 -33 2 -40 34 -34 17 4 31 10 30 14 -2 4 -3
21 -3 38 0 24 -4 30 -15 25 -12 -4 -14 0 -9 22 10 39 12 42 40 42 23 0 24 -2
24 -79 0 -44 -4 -82 -8 -85 -5 -3 -32 -8 -62 -12 -39 -5 -51 -4 -46 5 4 6 3
11 -3 11 -5 0 -11 -4 -13 -9 -1 -5 -41 -14 -86 -19 -69 -8 -89 -15 -111 -36
-23 -22 -36 -26 -83 -26 -47 0 -56 3 -61 20 -4 17 0 20 32 20 20 0 45 6 54 13
15 10 77 146 77 167 0 5 -27 10 -60 12 -50 2 -60 0 -64 -14 -3 -14 -15 -18
-49 -18 -43 0 -45 2 -50 33 -5 25 -12 548 -8 579 1 4 11 4 24 -1 12 -4 34 -11
49 -15 26 -6 27 -4 24 24 -2 17 1 33 7 37 11 7 -13 19 -73 38 l-35 11 -3 113
-3 113 23 -7 c13 -4 37 -14 53 -22 l30 -15 -23 21 c-26 26 -104 51 -132 44
-13 -3 -20 0 -20 8 0 9 -3 10 -8 3 -4 -6 -15 -13 -24 -17 -15 -5 -18 -18 -17
-74 0 -65 10 -160 25 -230 4 -23 3 -33 -6 -33 -9 0 -10 -14 -5 -51 5 -37 4
-54 -5 -59 -10 -6 -8 -15 6 -39 16 -27 17 -33 5 -41 -11 -6 -12 -12 -4 -22 5
-7 13 -29 16 -48 3 -19 3 -29 0 -22 -13 32 -18 2 -19 -116 0 -114 -3 -133 -22
-164 -30 -49 -64 -65 -92 -45 -31 21 -59 70 -85 147 -13 36 -28 64 -34 62 -6
-1 -11 2 -11 8 0 5 -4 10 -10 10 -5 0 -12 -17 -15 -37 -15 -83 -27 -115 -60
-148 -24 -26 -42 -35 -67 -35 -18 -1 -50 -7 -72 -15 -26 -9 -46 -11 -63 -4
-33 12 -34 12 -31 -8 2 -12 -3 -18 -17 -18 -26 0 -31 31 -9 56 13 15 14 22 5
33 -8 10 -9 16 -1 21 5 3 10 34 10 68 0 60 -1 63 -30 74 l-30 11 0 -98 c0 -54
4 -109 9 -123 9 -23 9 -23 -37 -16 -26 4 -66 8 -89 8 l-43 1 0 72 c0 79 -25
163 -44 150 -6 -3 -15 -7 -21 -7 -11 0 -28 -65 -41 -160 -8 -55 -11 -60 -35
-63 l-26 -3 14 -52 c9 -29 20 -57 25 -64 6 -7 4 -13 -4 -16 -10 -4 -10 -6 0
-6 21 -2 13 -38 -12 -54 -27 -18 -122 -16 -193 5 -34 9 -53 9 -92 -1 -37 -9
-55 -10 -70 -1 -25 13 -27 36 -5 48 15 8 15 10 0 15 -14 6 -13 11 7 48 23 40
26 42 71 42 51 0 77 -12 30 -14 -16 -1 -34 -1 -41 0 -19 2 -25 -17 -18 -63 l7
-44 62 0 c33 0 68 -1 76 -3 10 -3 15 3 15 16 0 11 9 25 20 30 17 9 20 22 22
75 1 35 -2 71 -7 80 -11 21 4 45 27 45 15 0 18 10 21 61 3 60 2 62 -25 66 -15
3 -36 9 -45 13 -17 7 -18 -2 -18 -104 l0 -111 -45 0 c-25 0 -45 5 -45 10 0 6
-13 10 -30 10 -18 0 -30 5 -30 13 0 19 21 37 42 37 15 0 18 9 18 65 0 57 -2
65 -17 63 -13 -2 -19 5 -21 26 -5 44 6 76 23 70 13 -5 15 11 15 107 0 109 -6
142 -26 140 -5 -1 -11 155 -14 351 -4 280 -8 358 -19 378 -8 14 -18 39 -22 55
-4 17 -7 -221 -8 -529 -1 -468 -3 -568 -16 -620 -37 -145 -97 -201 -215 -201
-83 0 -106 14 -189 111 -31 36 -62 141 -76 256 -6 45 -25 78 -25 42 0 -10 -3
-14 -6 -11 -4 4 -9 242 -12 529 -4 516 -5 524 -27 580 -13 31 -20 60 -17 64 4
4 1 4 -5 0 -10 -6 -13 -131 -13 -574 0 -314 -5 -598 -10 -637 -14 -99 -68
-203 -139 -266 -102 -91 -218 -112 -335 -62 l-64 28 1 97 c0 56 4 98 9 98 6 0
21 -9 35 -20 72 -56 146 6 157 132 4 35 3 56 0 48 -12 -27 -28 -30 -129 -29
-55 1 -152 -4 -215 -10 -63 -7 -157 -11 -207 -10 -51 2 -95 0 -99 -3 -3 -4 -3
-40 1 -81 l7 -74 197 -5 c120 -3 201 -1 209 5 15 12 15 11 17 -98 0 -71 4 -96
20 -119 18 -27 19 -27 33 -10 12 16 14 16 9 2 -3 -9 3 -28 14 -41 10 -14 19
-30 19 -35 0 -6 6 -13 13 -15 8 -4 7 -6 -4 -6 -9 -1 -23 17 -34 42 -18 40 -19
41 -26 17 l-7 -25 -1 24 c-1 13 -4 21 -8 18 -3 -4 -12 1 -19 11 -7 9 -14 12
-14 6 0 -6 7 -17 15 -24 20 -17 19 -57 -2 -69 -16 -9 -15 -12 11 -38 19 -19
30 -24 33 -15 5 14 83 17 83 2 0 -5 7 -7 15 -4 14 6 13 8 -2 21 -17 14 -17 14
2 8 91 -32 174 -30 233 5 40 24 49 25 32 5 -7 -8 -19 -15 -27 -15 -12 0 -13
-3 -4 -14 9 -11 9 -15 -1 -19 -7 -3 1 -6 17 -7 17 -1 24 -4 17 -7 -7 -3 -25
-2 -39 2 -21 5 -24 8 -13 15 23 14 4 23 -21 9 -13 -6 -48 -12 -79 -12 -42 0
-46 -1 -15 -4 22 -3 43 -10 47 -16 6 -9 8 -9 8 1 0 6 9 12 20 12 11 0 20 -5
20 -11 0 -6 39 -9 113 -8 70 1 121 -2 133 -9 20 -12 35 -11 -269 -17 -110 -3
-142 -7 -156 -19 -13 -12 -41 -16 -107 -17 -66 -1 -80 -4 -54 -9 31 -7 29 -8
-22 -9 -33 0 -58 3 -58 9 0 6 -7 10 -15 10 -8 0 -15 7 -15 15 0 24 -118 17
-131 -7 -17 -32 55 -41 326 -43 149 -1 242 1 230 7 -12 5 20 7 84 4 58 -2 100
-1 94 2 -6 4 29 7 78 8 83 1 104 -7 54 -19 -28 -7 51 -6 105 1 l45 7 -45 5
c-40 5 -36 7 43 14 62 6 92 5 100 -3 6 -6 29 -12 51 -12 38 -1 38 -2 -14 -10
-30 -4 -179 -17 -330 -29 -151 -11 -410 -31 -575 -45 -372 -31 -552 -45 -585
-45 l-25 0 3 243 c1 133 4 382 6 552 2 182 0 301 -5 288 -4 -13 -11 -23 -15
-23 -9 0 3 561 13 615 7 40 7 40 13 10 4 -16 8 117 9 296 2 313 -7 443 -20
299 -4 -48 -6 -30 -7 70 -1 74 2 153 6 175 9 49 3 145 -9 145 -5 0 -9 -41 -9
-91 l0 -91 -36 27 c-19 15 -62 38 -96 51 -33 13 -66 28 -74 35 -31 26 -34 -2
-34 -339 0 -422 -9 -682 -24 -682 -11 0 -11 -90 1 -120 3 -8 7 -78 9 -155 3
-77 9 -203 14 -280 5 -77 17 -252 25 -390 33 -525 32 -496 15 -505 -33 -17
-288 -110 -303 -110 -9 0 -20 -6 -24 -13 -7 -13 -273 -146 -319 -161 -16 -5
-22 1 -33 31 -28 77 -60 139 -85 162 -25 23 -29 24 -147 18 l-121 -6 7 92 c4
51 10 119 14 152 l6 59 60 21 c54 18 82 20 295 18 129 -1 260 -5 290 -8 41 -5
52 -4 44 5 -7 7 -100 15 -268 21 -244 9 -260 9 -343 -12 -49 -11 -90 -22 -91
-24 -2 -2 -10 -76 -17 -165 -8 -89 -15 -163 -17 -164 -2 -1 -66 -22 -143 -45
-259 -80 -263 -83 -330 -296 -25 -78 -45 -147 -45 -153 0 -6 -4 -13 -9 -16
-10 -7 -213 -64 -356 -101 -157 -40 -140 -42 -165 19 -21 53 -22 63 -21 509 0
249 4 462 7 473 4 10 12 22 18 26 7 5 3 8 -8 8 -18 0 -18 7 -12 128 3 70 11
285 17 477 7 240 16 389 29 475 23 154 66 401 86 495 15 70 55 272 74 375 33
180 34 183 70 160 12 -8 12 -10 -3 -16 -9 -3 -15 -10 -12 -14 3 -5 1 -11 -5
-15 -16 -10 -12 -42 8 -50 16 -7 15 -8 -3 -15 -11 -5 -14 -9 -6 -9 10 -1 11
-5 3 -13 -6 -7 -15 -42 -22 -78 -6 -36 -14 -74 -17 -85 l-6 -20 -8 20 c-5 12
-6 -4 -4 -40 3 -42 2 -51 -4 -30 l-8 30 -6 -25 c-9 -36 -34 -177 -41 -230 -5
-34 -4 -41 5 -30 8 12 9 8 4 -15 -4 -16 -9 -134 -12 -262 -5 -223 -4 -234 16
-268 18 -32 19 -35 3 -35 -13 0 -14 -2 -4 -8 24 -16 -3 -57 -50 -77 -23 -11
-46 -24 -50 -30 -13 -18 -9 -135 5 -136 29 -2 107 3 166 11 81 11 105 33 132
122 11 37 22 68 24 68 3 0 84 12 181 26 139 20 199 33 278 63 199 75 244 104
202 128 -12 7 -15 64 -18 323 -4 400 -3 398 -167 455 -62 22 -81 33 -85 51 -7
25 -19 29 -140 44 -44 5 -81 12 -84 14 -2 3 -2 20 2 39 l6 35 159 -49 c87 -27
204 -64 260 -83 95 -32 105 -34 164 -24 57 10 70 8 167 -21 235 -72 272 -84
276 -95 21 -58 69 -779 62 -941 l-3 -79 -45 3 c-25 1 -138 10 -252 19 -115 10
-208 15 -208 11 0 -9 63 -16 315 -35 274 -20 277 -21 286 -63 10 -47 19 -50
16 -5 -2 31 2 39 18 42 50 10 49 -8 42 523 l-6 495 76 19 c96 24 79 32 -21 10
-62 -14 -84 -15 -130 -5 -31 6 -56 16 -56 22 0 5 -6 8 -12 5 -9 -3 -14 11 -16
46 -4 88 -52 358 -79 447 -14 47 -25 94 -25 105 -1 24 -55 59 -108 69 -31 6
-29 4 23 -25 55 -31 58 -35 77 -98 31 -100 67 -266 84 -390 21 -146 21 -143
-6 -131 -13 5 -84 28 -158 50 -74 23 -160 50 -191 61 -45 16 -69 19 -130 14
-72 -7 -79 -5 -254 53 -393 132 -707 222 -775 222 -31 1 -33 2 -18 14 10 7 18
25 18 38 0 18 7 28 22 33 l23 8 -23 4 c-16 3 -22 11 -22 32 0 21 -7 31 -32 42
-18 8 -37 24 -43 37 -5 13 -21 25 -35 28 -14 2 -43 9 -65 14 -22 5 -130 8
-240 7 -188 -2 -207 -5 -320 -34 -66 -17 -140 -34 -165 -38 -25 -3 -101 -22
-170 -40 -69 -19 -190 -50 -270 -70 -80 -20 -148 -41 -151 -47 -4 -6 -11 -8
-16 -5 -6 4 -54 -6 -108 -20 -86 -23 -104 -32 -150 -75 -29 -26 -58 -48 -64
-48 -6 0 -11 -4 -11 -10 0 -5 -5 -10 -11 -10 -14 0 -41 -31 -95 -112 -24 -37
-49 -70 -54 -73 -13 -8 -13 -55 0 -55 6 0 10 -5 10 -11 0 -5 -5 -7 -10 -4 -6
3 -10 -4 -10 -17 0 -23 -24 -66 -44 -80 -6 -4 0 -15 15 -28 20 -17 33 -20 74
-16 64 6 158 46 196 82 l31 29 -8 -40 c-4 -22 -8 -47 -9 -55 0 -9 -5 -21 -9
-28 -9 -14 -32 -100 -45 -167 -5 -22 -12 -53 -16 -70 -10 -41 8 -20 22 25 6
19 19 67 28 105 10 39 23 81 30 95 7 14 10 31 8 38 -5 14 16 16 36 3 22 -14
21 -49 -1 -116 -14 -41 -19 -77 -16 -112 4 -49 -4 -70 -15 -40 -3 7 -9 1 -15
-14 -17 -43 -17 -52 -3 -96 8 -23 10 -49 6 -60 -17 -41 -34 -153 -23 -159 4
-3 8 -2 9 3 2 27 11 58 17 63 4 3 7 21 7 40 0 24 5 36 16 38 20 4 40 -39 28
-60 -5 -9 -11 -31 -14 -49 -3 -19 -12 -63 -19 -99 -8 -36 -12 -68 -9 -72 9
-16 -10 -7 -23 10 -28 37 -12 -10 21 -62 20 -31 31 -58 25 -61 -5 -3 -18 9
-29 27 -11 18 -24 38 -28 43 -5 6 -12 18 -16 28 -7 18 -12 19 -100 18 -33 0
-56 3 -52 8 3 5 1 12 -5 16 -5 3 -10 1 -10 -6 0 -14 -30 -38 -47 -39 -8 0 -13
12 -13 30 0 17 5 30 10 30 6 0 10 9 10 21 0 12 -4 17 -11 14 -7 -5 -8 41 -3
156 11 247 11 264 -3 262 -8 -2 -11 11 -10 38 1 33 3 37 13 25 23 -33 42 -19
46 34 3 49 -4 65 -16 35 -7 -18 -36 -9 -36 12 0 8 4 12 9 8 6 -3 14 3 20 12 6
10 11 14 11 8 0 -12 20 16 20 29 0 5 -6 3 -14 -3 -11 -9 -15 -9 -19 1 -4 8 -6
7 -6 -4 -1 -11 -9 -18 -20 -18 -14 0 -19 -6 -17 -17 2 -10 0 -79 -5 -153 -8
-136 -12 -212 -25 -481 l-6 -147 48 10 c27 5 70 7 96 3 25 -3 48 -1 50 4 1 5
30 12 62 16 45 6 57 5 51 -4 -4 -7 -13 -10 -21 -7 -9 4 -18 -3 -23 -16 -7 -19
-16 -22 -77 -23 -74 -1 -114 -16 -114 -42 0 -30 -79 -87 -129 -94 -76 -10 270
-9 484 1 188 9 620 48 765 70 36 5 101 12 145 14 44 3 94 8 110 10 17 2 71 6
120 9 50 2 72 2 50 0 -22 -2 -44 -8 -50 -13 -6 -5 -21 -7 -32 -4 -12 3 -30 1
-40 -5 -15 -8 -9 -10 29 -11 26 0 50 -4 53 -10 3 -5 1 -10 -4 -10 -6 0 -11 -7
-11 -15 0 -9 -6 -12 -16 -8 -8 3 -13 12 -10 19 4 10 -3 14 -24 14 -17 0 -30
-4 -30 -10 0 -5 4 -10 8 -10 5 0 3 -46 -4 -102 -22 -187 -33 -321 -40 -473 -3
-82 -11 -156 -17 -163 -8 -10 -7 -16 2 -22 9 -5 -1 -13 -30 -24 l-44 -16 65 5
c67 4 62 1 -28 -16 -99 -20 -47 -19 94 1 76 11 152 22 168 25 16 3 27 3 24 -1
-7 -6 -91 -26 -197 -44 -61 -11 -70 -15 -50 -23 21 -7 22 -10 9 -20 -8 -7 -16
-23 -16 -37 -1 -14 -5 -72 -8 -129 -6 -84 -5 -102 6 -96 7 3 4 -1 -7 -10 -11
-9 -29 -18 -40 -20 -69 -13 -77 -17 -72 -29 4 -10 -9 -15 -51 -19 -81 -8 -117
-2 -143 22 -24 22 -115 54 -129 46 -4 -3 -27 2 -51 11 -24 8 -75 19 -114 24
-120 16 -604 42 -633 35 -15 -4 -55 -9 -90 -11 l-62 -4 6 58 c3 31 10 93 15
136 8 75 7 97 -7 84 -3 -4 -12 -68 -20 -144 -17 -159 -27 -179 -82 -169 -61
11 -81 26 -88 63 -6 32 -4 116 12 595 3 105 1 127 -10 127 -25 0 -29 38 -7 66
31 39 27 66 -4 30 -28 -32 -27 -33 -89 51 -44 62 -58 70 -25 16 13 -21 28 -47
33 -58 6 -11 21 -31 33 -45 24 -27 16 -49 -21 -63 -18 -7 -18 -8 -1 -21 17
-12 17 -13 0 -20 -10 -4 -22 -2 -25 5 -6 8 -9 7 -13 -2 -4 -10 -6 -9 -6 4 -1
18 -16 23 -25 9 -3 -5 -21 -9 -40 -10 -31 -1 -35 2 -38 26 -2 22 -8 27 -30 27
-16 1 -28 -3 -28 -7 0 -4 9 -8 19 -8 10 0 22 -7 25 -16 9 -24 7 -27 -10 -10
-21 22 -35 20 -41 -4 -4 -16 -8 -18 -19 -9 -8 6 -14 20 -14 31 0 14 -5 18 -15
14 -8 -3 -15 -1 -15 4 0 6 -32 9 -72 9 -40 -1 -65 -3 -55 -6 21 -5 23 -33 2
-33 -8 0 -15 -4 -15 -8 0 -4 -9 -8 -20 -8 -11 0 -20 3 -20 7 0 4 -14 6 -30 4
-21 -3 -30 0 -30 10 0 14 -20 17 -30 4 -3 -4 -15 -9 -27 -13 -20 -7 -23 -4
-23 23 0 16 -4 33 -10 36 -6 4 -7 -6 -4 -24 6 -30 5 -30 -30 -29 -20 1 -36 6
-37 12 0 6 -4 2 -9 -9 -8 -19 -9 -19 -9 3 -1 18 -7 22 -30 22 -16 0 -32 6 -34
12 -4 9 -8 9 -14 3 -4 -5 -14 -10 -20 -11 -46 -4 -43 73 -43 -1184 0 -649 3
-1180 8 -1180 4 0 34 7 67 14 57 14 309 58 405 71 25 4 74 12 110 20 36 7 92
16 125 20 33 4 87 13 120 21 33 7 75 14 94 14 19 0 48 4 65 9 17 6 64 15 104
22 67 11 99 29 52 29 -15 0 -27 13 -40 42 l-20 43 0 -32 c0 -36 -13 -43 -29
-16 -7 12 -13 14 -18 8 -6 -7 -19 -7 -43 2 l-35 13 39 -3 c24 -1 41 3 43 11 4
9 -6 12 -39 9 -25 -2 -50 -7 -55 -10 -15 -9 -23 39 -9 53 8 8 7 13 -3 19 -19
12 -6 140 15 148 8 3 14 13 14 22 0 14 -2 14 -11 1 -8 -12 -9 -11 -5 5 3 11 1
26 -3 34 -8 12 -12 12 -25 2 -17 -15 -20 -13 -78 41 -23 21 -29 34 -26 59 2
18 8 34 14 36 7 2 10 -6 6 -22 -3 -19 -1 -24 10 -20 8 3 33 -12 58 -35 44 -41
54 -41 63 -5 3 11 3 -2 0 -29 -6 -51 9 -75 34 -55 7 6 17 8 22 5 17 -11 22 11
5 24 -8 7 -13 19 -10 26 3 7 1 16 -4 19 -5 3 -12 -6 -16 -20 -10 -39 -14 -26
-18 56 -7 117 -15 149 -42 159 -13 5 -24 14 -24 19 0 5 -12 17 -27 26 -25 17
-26 17 -18 -1 15 -37 16 -58 2 -29 -17 34 -37 93 -37 108 0 6 16 -8 36 -31 43
-51 94 -82 94 -57 0 8 -16 38 -36 66 -26 37 -30 48 -15 40 11 -6 23 -16 26
-21 13 -20 33 -9 37 20 6 37 -10 50 -29 24 -13 -17 -14 -17 -31 0 -16 16 -16
18 0 30 9 6 24 38 33 69 16 55 29 70 38 45 2 -7 8 -10 12 -5 5 4 4 12 -3 19
-8 8 -7 17 5 34 8 13 13 35 11 47 -4 22 -2 24 30 21 19 -1 38 -7 41 -12 12
-19 105 -40 129 -29 17 8 62 5 163 -7 77 -10 153 -16 169 -13 28 6 28 6 23
-33 -7 -48 12 -55 22 -9 6 26 10 30 33 25 38 -8 314 -37 317 -34 2 2 -14 32
-34 68 -34 59 -40 65 -76 71 -94 16 -584 61 -599 56 -9 -4 -21 -18 -26 -32 -5
-14 -18 -35 -28 -46 -18 -19 -21 -19 -78 -4 -102 26 -184 59 -217 86 l-31 26
14 74 c12 60 20 76 39 85 21 11 29 8 64 -17 22 -16 46 -29 54 -29 7 0 13 -4
13 -10 0 -5 -2 -10 -5 -10 -10 0 -81 35 -97 49 -16 12 -18 12 -18 -2 0 -10 25
-28 64 -47 54 -26 69 -29 93 -20 15 6 33 17 38 24 6 6 42 21 80 32 58 16 97
19 225 17 85 -2 202 -7 260 -12 58 -6 145 -13 194 -17 64 -4 85 -9 77 -17 -22
-22 -10 -36 66 -79 134 -74 129 -73 181 -59 43 10 415 52 451 50 9 0 -20 -11
-64 -23 -75 -22 -80 -25 -102 -66 -26 -48 -29 -66 -11 -72 43 -15 -282 -68
-432 -71 -72 -1 -80 -3 -80 -21 0 -18 6 -18 99 -12 65 4 102 3 106 -4 3 -5 1
-10 -4 -10 -6 0 -11 -10 -11 -21 0 -17 3 -19 14 -10 8 7 17 8 20 3 2 -4 7 -86
11 -181 5 -144 3 -177 -9 -196 -13 -20 -13 -25 -1 -35 8 -7 13 -15 11 -19 -10
-15 412 31 509 55 103 26 245 75 245 85 0 5 16 9 35 9 31 0 35 -3 35 -25 0
-21 4 -25 22 -21 13 3 44 8 70 11 26 3 50 10 53 15 6 10 35 2 35 -9 0 -8 -163
-37 -168 -30 -8 10 -20 -30 -23 -76 -3 -48 -2 -50 24 -53 32 -4 36 -29 5 -34
-12 -2 -23 -9 -26 -16 -3 -9 4 -11 25 -7 51 10 174 21 177 16 2 -4 -3 -51 -10
-106 -20 -148 -19 -174 9 -185 19 -9 20 -10 2 -8 -11 0 -29 -2 -40 -6 -52 -20
-74 -26 -129 -36 -64 -11 -83 -20 -45 -21 l24 0 -22 -9 c-17 -7 -23 -18 -23
-39 0 -16 5 -33 11 -36 6 -4 9 -23 7 -43 -1 -20 2 -37 9 -39 6 -2 49 5 95 16
45 11 141 32 211 48 108 24 128 31 132 48 2 11 9 46 16 77 7 32 9 80 6 110 -4
29 -3 48 1 41 4 -7 9 10 10 37 1 28 -2 50 -7 50 -6 0 -12 17 -14 38 -2 20 -2
3 0 -38 2 -41 -1 -82 -7 -90 -6 -10 -10 -11 -10 -2 0 7 -15 12 -40 12 l-40 0
0 40 c0 29 4 40 15 40 11 0 15 12 15 44 0 25 5 48 11 51 6 4 8 13 5 20 -2 7 4
22 15 34 l20 21 -41 0 c-48 0 -51 22 -5 30 22 4 31 12 37 37 11 44 28 42 28
-3 0 -21 4 -33 10 -29 6 4 10 -6 11 -22 1 -53 18 6 32 115 l14 102 -30 0 c-48
0 -28 7 42 14 56 5 62 4 57 -11 -19 -49 -57 -281 -70 -433 -16 -180 -41 -319
-61 -347 -7 -9 -43 -21 -86 -29 -41 -7 -126 -22 -189 -33 -197 -36 -241 -42
-251 -35 -6 3 -18 -1 -28 -10 -29 -26 -134 -40 -306 -39 -202 0 -313 15 -337
44 -10 12 -18 16 -18 10 0 -17 -45 -14 -180 15 -212 45 -298 71 -333 100 -28
23 -33 34 -37 87 l-5 61 -70 17 c-175 43 -334 79 -344 79 -7 0 -11 -23 -11
-59 0 -33 -4 -62 -9 -65 -5 -3 -60 -15 -123 -27 -62 -11 -121 -24 -130 -30
-10 -5 -50 -14 -90 -19 -40 -6 -89 -15 -108 -20 -19 -5 -80 -16 -135 -24 -55
-9 -143 -25 -195 -36 -52 -11 -147 -29 -210 -40 -63 -11 -149 -26 -190 -33
l-75 -13 -3 -118 -3 -118 33 5 c18 2 69 12 113 21 61 13 115 16 225 12 140 -4
178 -10 191 -28 6 -9 19 -13 59 -19 8 -1 -3 -5 -25 -9 -24 -5 -2 -6 53 -3 60
4 92 2 92 -5 0 -6 -44 -13 -107 -17 -60 -3 -119 -9 -133 -13 -23 -6 -22 -6 10
-10 19 -2 39 -8 44 -13 6 -5 27 -9 48 -9 21 0 38 -4 38 -10 0 -5 7 -10 15 -10
10 0 15 -7 13 -18 -3 -15 7 -17 107 -15 61 2 180 10 265 18 109 11 156 13 158
5 3 -7 8 -7 18 1 11 9 18 9 26 1 6 -6 17 -8 24 -5 10 4 14 -3 14 -21 0 -14 -4
-26 -10 -26 -5 0 -10 5 -10 10 0 6 -4 10 -10 10 -5 0 -10 -6 -10 -14 0 -19 32
-30 41 -14 7 10 12 11 28 1 13 -8 22 -9 26 -3 11 18 75 12 82 -7 14 -42 31
-50 91 -46 36 2 60 9 65 18 9 17 43 20 52 5 3 -6 -1 -13 -9 -16 -9 -3 -16 -10
-16 -15 0 -12 25 -11 50 1 11 6 29 14 39 19 23 12 35 3 20 -16 -9 -10 -5 -13
19 -13 17 0 32 -5 34 -10 2 -6 13 -2 25 9 21 20 63 25 63 8 0 -5 11 -7 25 -5
13 3 22 1 19 -4 -3 -4 3 -11 12 -15 10 -4 19 -2 22 5 6 18 50 14 60 -5 6 -10
16 -14 26 -10 10 4 14 11 11 17 -4 6 5 10 20 10 17 0 24 -4 19 -12 -5 -8 -2
-9 12 -3 10 5 44 11 74 13 30 2 61 9 69 15 11 9 15 9 18 0 6 -18 23 -16 23 2
0 8 5 15 10 15 6 0 10 -6 10 -14 0 -12 20 -26 36 -26 2 0 4 11 4 25 0 14 5 25
10 25 6 0 10 -8 10 -18 0 -10 5 -23 12 -30 8 -8 8 -15 -1 -26 -15 -18 1 -30
30 -21 12 4 18 12 15 21 -3 8 -2 14 3 14 5 0 11 -14 13 -30 3 -17 0 -30 -5
-30 -6 0 -8 -2 -5 -5 9 -10 38 7 38 21 0 8 5 23 12 34 7 10 9 23 5 27 -5 4
-12 2 -16 -5 -4 -7 -15 -10 -25 -6 -14 5 -15 9 -4 16 9 6 6 7 -9 3 -19 -5 -23
-2 -23 14 0 16 6 21 24 21 14 0 28 -5 31 -10 4 -7 11 -7 18 -2 7 5 40 9 75 9
34 0 66 3 69 7 4 3 -21 6 -55 6 -37 0 -66 5 -74 13 -7 8 -26 17 -42 21 -15 4
-26 9 -23 12 3 3 31 -2 63 -12 33 -9 100 -20 149 -23 79 -6 251 -45 265 -60 3
-4 16 -7 30 -7 14 -1 88 -17 165 -37 325 -83 486 -107 840 -127 99 -5 263 -14
365 -20 102 -6 309 -15 460 -20 151 -6 343 -15 425 -20 83 -5 287 -14 455 -20
168 -6 395 -17 505 -25 110 -8 359 -20 554 -25 194 -6 356 -12 360 -14 3 -2
85 -7 181 -11 96 -4 189 -8 205 -10 32 -4 295 -15 965 -40 223 -9 570 -25 772
-35 202 -11 383 -20 403 -20 l35 0 0 1078 0 1079 -357 12 c-197 7 -495 16
-663 20 -262 5 -305 8 -305 21 0 11 8 14 28 12 22 -2 30 2 34 17 6 24 13 25
168 11 145 -13 638 -38 893 -45 l202 -6 0 309 0 308 -27 12 -28 12 28 -5 c21
-4 27 -2 27 12 0 16 -10 18 -100 16 -55 -1 -100 3 -100 8 0 5 5 9 11 9 5 0 7
5 4 10 -4 6 -1 18 6 26 11 13 14 13 25 -8 11 -18 13 -19 14 -5 0 9 6 17 14 17
8 0 17 -8 19 -17 4 -15 5 -16 6 -2 1 21 35 31 51 15 9 -8 14 -8 17 1 2 7 11 9
19 6 11 -4 14 8 14 65 0 67 -1 70 -25 74 -14 3 -28 1 -31 -3 -3 -5 -13 -5 -23
1 -10 5 -22 6 -26 2 -10 -10 -29 -9 -37 3 -5 6 -11 5 -17 -4 -6 -9 -11 -10
-15 -2 -16 25 -25 7 -29 -56 l-3 -68 -2 69 c-2 66 -3 68 -24 62 -13 -3 -26 -6
-30 -6 -5 0 -9 -17 -9 -37 -1 -28 -4 -20 -12 30 -5 37 -13 67 -18 67 -5 0 -9
-33 -9 -74 0 -42 -5 -78 -11 -81 -6 -4 -10 -1 -8 6 1 8 1 25 0 38 -1 24 -2 24
-15 6 -12 -17 -14 -11 -20 48 -8 69 -25 92 -27 35 -1 -29 -2 -30 -8 -9 l-6 24
-13 -27 c-6 -15 -12 -40 -12 -56 0 -16 -4 -32 -10 -35 -5 -3 -10 -16 -10 -28
0 -18 -2 -19 -10 -7 -5 8 -10 76 -10 152 l0 136 38 -11 c20 -6 40 -16 44 -21
4 -6 14 -3 25 9 25 27 44 29 50 5 6 -22 23 -28 23 -7 0 7 9 13 20 13 14 0 23
-9 26 -26 9 -42 12 -46 13 -19 1 14 5 29 10 35 5 5 11 18 14 29 3 13 5 9 6
-12 0 -18 6 -33 11 -33 6 0 10 4 10 9 0 10 47 21 55 13 3 -3 26 -7 51 -8 65
-2 75 12 72 99 l-3 71 -33 7 c-27 6 -32 4 -27 -9 4 -12 3 -13 -9 -3 -22 18
-66 24 -66 9 0 -9 -3 -8 -10 2 -6 10 -10 11 -10 3 0 -7 -4 -13 -10 -13 -5 0
-10 14 -10 30 0 32 16 41 23 13 4 -14 5 -12 6 5 1 28 29 29 40 0 6 -18 9 -19
14 -5 6 15 10 15 48 2 23 -9 45 -12 48 -9 3 4 2 8 -4 11 -66 25 -64 16 -85
268 -6 77 -20 187 -30 245 -10 58 -26 179 -35 270 -9 91 -23 208 -30 260 -27
174 -45 324 -48 386 l-2 60 60 72 c33 39 68 72 77 72 18 0 34 -66 30 -128 -2
-29 1 -33 20 -30 15 2 24 11 26 26 2 14 -1 22 -10 20 -15 -3 -35 81 -25 106 4
9 18 16 32 16 l25 0 0 320 c0 250 -3 320 -12 320 -25 -1 -481 -68 -515 -75
-17 -4 -20 -1 -16 16 3 12 1 24 -5 28 -8 4 -8 20 -1 49 12 56 19 292 8 292 -5
0 -10 -51 -12 -112 l-3 -113 -2 128 c-1 72 -6 127 -11 127 -6 0 -11 -60 -13
-137z m422 -270 c42 -39 71 -128 78 -239 l5 -91 -32 -5 c-31 -5 -31 -4 -31 41
0 75 -27 230 -44 256 -46 70 -77 -5 -102 -237 -5 -56 -6 -58 -35 -58 -27 0
-29 2 -29 41 0 93 -33 238 -59 253 -30 19 -67 -95 -78 -239 l-8 -100 -30 0
c-34 0 -32 -6 -22 107 11 128 68 250 123 264 31 8 64 -14 88 -59 l19 -35 25
49 c22 45 59 78 89 79 7 0 26 -12 43 -27z m110 -396 c0 -43 -9 -51 -32 -30
-15 13 -19 14 -16 3 4 -20 -73 -33 -88 -15 -8 11 -12 11 -20 -1 -10 -17 -80
-28 -89 -15 -3 6 -17 3 -33 -5 -33 -17 -64 -18 -80 -2 -9 9 -12 9 -12 1 0 -21
-40 -26 -61 -7 -16 15 -19 15 -19 2 0 -22 -30 -32 -31 -10 -1 16 -2 16 -6 0
-7 -28 -30 -21 -42 13 -14 40 -14 39 4 39 8 0 15 -6 16 -12 0 -10 2 -10 6 0 2
6 11 12 18 12 7 0 16 -6 18 -12 3 -8 6 -6 6 5 1 22 21 23 21 0 0 -15 1 -15 13
-1 16 20 45 30 53 17 4 -7 10 -6 19 1 7 6 33 13 57 15 23 3 62 8 86 11 25 3
49 1 56 -6 10 -8 15 -7 20 5 7 18 86 21 104 3 9 -9 12 -8 12 5 0 9 5 17 10 17
6 0 10 -15 10 -33z m-350 -296 c44 -31 56 -44 60 -72 5 -32 1 -37 -70 -97
l-75 -63 -3 47 c-2 35 1 49 15 59 17 13 17 14 1 20 -11 5 -16 15 -14 28 3 12
6 38 7 57 2 30 3 28 8 -15 5 -41 9 -50 26 -50 13 0 21 8 23 23 2 13 -2 22 -10
22 -8 0 -19 18 -25 40 -5 22 -7 40 -4 40 3 0 31 -18 61 -39z m127 -103 c4 -78
18 -208 25 -227 8 -21 6 -23 -14 -17 -13 3 -26 6 -30 6 -16 0 -7 20 8 20 21 0
12 24 -11 28 -10 3 -15 0 -11 -7 9 -14 -42 -14 -99 0 -48 12 -53 31 -7 25 15
-2 20 -1 12 1 -31 10 -27 20 36 87 35 39 64 76 64 83 0 17 26 17 27 1z m-7202
-54 c-7 -20 -18 -40 -26 -45 -9 -5 13 -8 56 -6 l70 2 -1 -40 c-1 -21 -7 -41
-13 -43 -5 -2 -13 -19 -17 -38 -3 -19 -10 -36 -14 -39 -5 -3 -7 -29 -4 -58 8
-102 23 -243 30 -274 4 -21 3 -33 -4 -33 -13 0 -17 14 -32 100 -7 36 -14 72
-17 80 -4 8 -8 29 -10 45 -8 56 -10 36 -9 -98 1 -128 0 -135 -25 -173 -27 -41
-33 -61 -18 -56 5 1 7 -10 3 -25 -10 -46 -13 -53 -24 -53 -13 0 -13 37 0 45
13 8 13 25 -1 25 -5 0 -15 -13 -20 -30 -15 -40 -30 -38 -18 2 12 44 12 91 -1
83 -5 -3 -10 -17 -10 -31 0 -13 -4 -24 -9 -24 -16 0 -23 38 -16 80 10 57 -6
49 -35 -17 -20 -45 -26 -53 -28 -35 -2 13 6 38 17 57 11 19 18 42 14 51 -4 12
-8 11 -17 -8 -18 -37 -41 -33 -59 9 -9 21 -16 31 -15 23 2 -47 -3 -91 -10 -86
-5 3 -7 -9 -5 -27 2 -25 -1 -22 -13 17 -24 74 -39 44 -19 -39 18 -79 12 -97
-12 -37 -19 50 -28 53 -37 11 -4 -20 -10 -28 -17 -23 -8 4 -9 3 -5 -4 4 -7 14
-12 22 -12 8 0 14 -3 14 -8 0 -4 -19 -8 -42 -8 -48 0 -67 17 -63 53 1 13 -2
23 -6 23 -5 0 -9 6 -9 14 0 7 -7 19 -15 26 -8 7 -15 21 -15 32 0 10 -5 16 -10
13 -6 -3 -14 4 -20 17 -13 31 -49 72 -57 64 -3 -3 1 -14 10 -24 10 -10 17 -23
17 -28 0 -6 8 -19 18 -30 27 -30 43 -73 36 -100 -9 -36 -25 -25 -59 42 -32 65
-65 114 -65 99 1 -38 95 -220 132 -255 12 -11 19 -22 16 -26 -6 -6 -48 31 -48
41 1 6 -32 50 -72 98 -21 24 -27 28 -28 15 0 -10 4 -18 9 -18 11 0 64 -80 58
-87 -11 -10 -55 40 -50 55 4 10 2 13 -5 8 -7 -4 -21 9 -36 32 -17 27 -31 39
-47 38 -18 -1 -26 8 -38 39 -8 22 -21 46 -28 53 -17 17 -16 22 1 22 8 0 17
-13 21 -30 4 -16 11 -30 17 -30 6 0 8 9 5 21 -3 11 3 46 12 77 10 32 26 91 36
132 19 80 39 108 77 104 12 -1 26 -3 31 -3 11 -1 8 -41 -3 -41 -25 0 8 -44
113 -150 59 -59 85 -155 47 -171 -8 -4 -1 -7 18 -6 37 0 39 9 16 66 -19 49
-16 86 6 70 12 -8 12 -12 2 -16 -9 -3 -7 -10 9 -24 17 -15 24 -16 30 -7 5 7 4
17 -1 22 -14 14 -12 28 3 23 17 -5 36 23 36 53 0 14 -3 20 -5 13 -3 -7 -12 -9
-20 -6 -8 3 -14 -1 -14 -10 0 -9 -4 -19 -10 -22 -6 -4 -10 8 -10 29 0 30 6 39
45 67 37 27 45 38 45 64 0 45 -28 133 -49 154 -17 17 -14 19 103 50 150 40
155 42 139 48 -7 3 -13 12 -13 20 0 21 41 63 61 63 15 0 15 -4 4 -36z m7244
-541 c7 -54 19 -154 27 -223 8 -69 17 -136 20 -149 6 -29 -5 -26 -76 21 -55
36 -68 75 -30 85 11 3 20 10 20 15 0 6 -7 8 -15 4 -13 -4 -15 8 -15 81 0 75 2
84 15 73 12 -10 15 -10 15 4 0 9 -7 16 -15 16 -12 0 -15 13 -15 58 0 47 4 62
25 85 14 15 27 27 29 27 2 0 9 -44 15 -97z m-7239 -219 l0 -35 130 2 c129 2
163 -2 118 -16 -13 -4 -56 -23 -96 -41 -41 -19 -81 -34 -90 -34 -11 0 -5 -11
21 -38 20 -21 37 -41 37 -45 0 -16 -38 -5 -60 18 -12 13 -39 36 -60 50 -31 22
-41 24 -65 15 -33 -13 -205 -7 -231 8 -17 10 -17 12 9 21 16 6 42 11 58 11 26
0 29 3 25 27 -7 37 3 73 20 73 8 0 14 -4 14 -10 0 -5 -4 -10 -8 -10 -4 0 -6
-16 -4 -35 4 -32 7 -35 37 -35 28 0 33 4 41 33 7 23 16 32 32 33 12 1 22 -3
22 -8 0 -5 5 -6 10 -3 6 3 10 16 10 29 0 12 3 26 6 29 13 13 24 -5 24 -39z
m415 -244 c-16 -44 -31 -80 -35 -80 -4 0 -13 18 -20 40 -14 42 -18 44 -90 55
-72 11 -130 53 -77 56 12 1 72 4 132 8 61 3 112 5 114 4 2 -1 -9 -38 -24 -83z
m-385 50 c0 -5 -7 -10 -15 -10 -8 0 -15 -7 -15 -15 0 -11 -12 -15 -42 -16
-133 -4 -191 -14 -208 -34 -9 -11 -2 -18 42 -38 29 -14 61 -28 71 -31 9 -3 17
-10 17 -15 0 -5 -8 -8 -17 -6 -58 12 -97 14 -83 5 12 -8 11 -10 -5 -9 -25 1
-75 17 -57 18 17 1 15 21 -2 21 -8 0 -17 11 -20 25 -5 18 -13 25 -32 25 -16 0
-23 4 -18 11 4 8 -1 9 -17 4 -86 -28 -173 -33 -204 -11 -28 18 -55 17 -47 -3
4 -13 1 -12 -16 3 -12 11 -20 21 -18 23 6 7 116 19 316 37 307 28 370 30 370
16z m7281 -155 c6 -50 17 -94 25 -100 11 -8 37 -125 28 -125 -2 0 -27 11 -56
24 -29 13 -99 39 -155 57 -57 18 -103 36 -103 41 0 4 4 8 9 8 5 0 12 8 15 17
6 14 3 14 -15 -3 -24 -22 -70 -27 -62 -7 3 7 8 13 12 13 4 0 37 20 74 45 63
42 101 60 67 32 -8 -7 -26 -26 -40 -42 -28 -33 -32 -36 99 69 46 37 85 66 86
64 2 -2 9 -44 16 -93z m-7633 8 l3 -53 -58 0 c-32 0 -76 -3 -98 -6 -28 -5 -37
-3 -30 4 6 6 26 12 45 15 32 3 31 4 -10 6 -35 1 -42 4 -30 12 12 8 9 10 -12 6
-16 -2 -33 2 -39 9 -6 8 -14 12 -18 10 -3 -2 -12 2 -18 9 -10 11 -5 15 30 20
23 3 71 9 107 14 36 5 79 8 95 7 29 -1 30 -3 33 -53z m1212 -50 c0 -48 -4
-196 -10 -328 -18 -433 -32 -750 -33 -752 -1 0 -36 -8 -77 -16 -55 -12 -90
-13 -130 -7 l-55 9 57 -4 c68 -4 82 5 31 21 -21 7 -30 12 -20 13 9 1 17 8 17
16 0 8 10 25 21 36 12 12 17 24 12 28 -17 10 -27 53 -27 118 -1 49 2 63 14 64
8 1 2 4 -15 8 -26 6 -19 9 45 20 95 17 130 30 130 46 0 7 2 22 5 32 4 14 3 14
-5 -2 -14 -27 -52 -42 -120 -49 -31 -3 -46 -2 -36 3 19 7 19 8 -2 29 -20 20
-22 33 -22 117 0 80 -3 95 -16 95 -12 0 -15 13 -14 68 1 138 -1 208 -9 247
l-8 40 -16 -35 -16 -35 1 73 c1 40 5 75 10 78 4 3 4 13 0 22 -13 25 1 66 26
77 26 12 29 25 5 26 -24 2 161 26 215 27 l42 2 0 -87z m4943 -871 c-44 -3 -52
-12 -30 -30 8 -7 18 -7 27 -2 25 16 83 11 109 -9 l24 -19 -21 -11 c-12 -6 -34
-11 -49 -11 -92 0 -303 -10 -329 -15 -21 -5 -34 -2 -43 9 -17 21 -7 46 19 46
13 0 20 7 20 19 0 26 11 27 175 27 77 0 121 -2 98 -4z m1111 -44 c9 -34 7 -50
-4 -43 -6 4 -10 -6 -10 -24 0 -16 -4 -32 -9 -35 -12 -8 -22 20 -14 41 4 10 2
14 -5 9 -6 -3 -13 -2 -17 4 -10 17 -25 1 -25 -27 0 -14 -7 -49 -16 -79 -8 -30
-14 -60 -11 -67 2 -7 -10 -17 -27 -23 -29 -10 -31 -15 -32 -60 -3 -94 4 -89
-125 -88 -272 3 -294 4 -280 13 8 5 30 7 49 4 29 -5 33 -3 31 13 -1 10 2 30 8
44 6 14 28 73 49 132 33 93 43 110 78 138 35 27 47 31 83 27 24 -2 40 -1 37 4
-3 5 2 9 10 9 9 0 16 -4 16 -8 0 -5 6 -9 14 -9 8 0 12 6 9 14 -3 7 1 13 8 14
58 2 155 11 158 15 10 9 19 3 25 -18z m-2049 -425 c-18 -3 -20 -12 -20 -90 0
-96 4 -101 78 -102 47 -1 54 -31 6 -31 -18 0 -28 -4 -24 -10 4 -6 -6 -9 -27
-8 l-33 3 -3 -62 c-3 -55 -6 -63 -22 -63 -19 0 -20 8 -20 185 l0 185 43 -1
c23 -1 33 -4 22 -6z m-2195 -117 c20 -110 51 -196 69 -196 6 0 11 6 11 13 0
10 25 17 88 23 l87 9 0 31 0 32 75 6 c107 9 672 74 752 86 94 14 129 12 156
-8 l24 -18 -21 -110 c-12 -60 -24 -172 -27 -249 -8 -192 -11 -201 -82 -220
-31 -9 -75 -22 -97 -30 -38 -13 -564 -144 -798 -200 -60 -14 -119 -25 -131
-25 -12 0 -26 -4 -32 -9 -5 -5 -63 -21 -129 -35 -66 -15 -128 -29 -137 -32
-17 -5 -18 9 -18 204 0 291 -14 414 -69 616 -12 44 -18 82 -14 86 13 13 266
140 270 137 2 -2 12 -52 23 -111z m2660 44 c47 4 73 1 80 -10 5 -7 16 -9 30
-5 28 9 70 -12 70 -35 0 -26 -150 -50 -314 -50 -128 0 -138 1 -131 18 4 9 10
27 12 40 4 14 13 22 27 22 18 0 19 2 6 11 -12 9 -12 10 3 5 10 -3 35 -8 55
-10 21 -2 27 -1 14 1 -12 2 -20 9 -16 14 3 5 36 7 77 3 40 -3 79 -5 87 -4z
m-5245 -235 c-2 -14 1 -25 6 -25 5 0 9 12 9 26 0 23 1 24 16 10 8 -9 12 -21 9
-27 -5 -7 3 -9 24 -6 29 5 31 3 25 -15 -6 -19 -3 -20 27 -15 19 3 28 3 22 0
-26 -10 -11 -23 27 -23 58 0 49 -17 -14 -24 -56 -7 -96 6 -96 31 0 7 -7 13
-15 13 -25 0 -18 -38 8 -42 14 -2 22 -10 22 -23 0 -11 3 -25 8 -32 4 -7 -3
-22 -18 -37 -22 -22 -23 -26 -8 -27 13 -1 10 -3 -7 -9 -17 -5 -19 -8 -7 -9 29
-2 19 -26 -16 -39 -43 -15 -47 -15 -47 3 0 9 10 20 23 25 12 5 17 9 11 9 -7 1
-15 8 -18 17 -3 8 -2 12 4 9 13 -8 13 5 -1 44 -6 17 -15 31 -20 31 -5 0 -9 34
-9 76 0 47 4 73 10 69 6 -3 10 -1 10 4 0 6 4 11 9 11 4 0 7 -11 6 -25z m4665
-45 c0 -17 7 -20 40 -20 22 0 73 9 115 21 42 11 96 19 122 17 46 -3 44 -4 -59
-30 -98 -26 -124 -28 -288 -28 -99 0 -180 3 -180 8 0 7 181 47 228 50 16 2 22
-3 22 -18z m695 1 l60 -6 -85 -24 c-101 -29 -187 -36 -318 -26 l-97 8 75 17
c41 10 91 22 110 28 39 11 164 13 255 3z m-4938 -29 c18 -11 10 -37 -30 -99
-21 -31 -34 -59 -31 -62 4 -3 9 0 11 7 3 6 10 9 15 6 6 -4 8 -2 4 4 -3 6 -2
13 3 16 5 3 12 -1 15 -11 7 -17 -21 -56 -34 -48 -8 5 -134 -26 -208 -51 -56
-19 -59 -18 -64 11 -5 24 -3 25 41 25 l46 1 -25 21 c-24 20 -24 21 -6 32 39
23 76 62 79 83 5 33 17 40 24 15 5 -19 8 -20 21 -10 13 11 14 8 8 -27 -4 -22
-12 -43 -18 -46 -18 -11 -4 -44 17 -41 28 5 57 33 51 49 -3 7 -2 13 2 13 5 0
14 16 21 36 7 19 19 38 27 41 12 4 12 8 -3 18 -9 7 -24 10 -32 7 -9 -3 -12 -1
-7 6 8 13 55 16 73 4z m-1150 -718 l162 -37 -2 -68 c-1 -37 -5 -71 -9 -74 -11
-11 -358 88 -358 103 0 7 -7 15 -15 18 -8 4 -15 11 -15 16 0 6 7 8 15 4 12 -4
15 4 15 40 0 43 2 46 23 40 12 -3 95 -22 184 -42z"/>
<path d="M4995 1925 c-27 -7 -62 -15 -76 -19 -25 -6 -26 -8 -33 -107 -5 -67
-4 -105 3 -112 8 -8 11 -8 11 0 0 6 43 21 95 33 l95 22 1 31 c0 27 2 29 9 12
6 -13 9 9 8 68 l-1 87 -31 -1 c-17 0 -53 -7 -81 -14z"/>
<path d="M1330 1357 c0 -9 -3 -22 -6 -31 -4 -11 -1 -16 10 -16 9 0 16 -4 16
-10 0 -5 -8 -10 -17 -10 -16 0 -16 -1 0 -17 16 -16 18 -16 30 1 13 18 14 18
20 -3 7 -27 27 -28 27 0 0 12 5 19 13 16 6 -2 11 -14 11 -25 -1 -12 1 -23 5
-23 48 -9 60 -7 64 14 4 18 5 17 6 -5 0 -18 7 -28 16 -28 25 0 29 -1 43 -12 9
-8 12 -3 12 20 0 28 2 31 23 23 16 -6 21 -16 20 -35 -2 -27 10 -35 23 -15 4 7
9 29 11 50 4 30 1 40 -12 46 -11 4 -21 0 -27 -10 -13 -24 -37 -22 -31 3 3 11
0 20 -6 20 -6 0 -11 -8 -12 -17 0 -14 -2 -13 -9 5 -9 20 -35 28 -77 23 -7 -1
-13 3 -13 9 0 5 -9 10 -20 10 -13 0 -18 -5 -14 -15 4 -10 0 -15 -16 -15 -17 0
-20 4 -15 20 4 14 2 20 -9 20 -8 0 -18 -9 -21 -21 -8 -24 -18 -18 -20 13 -2
24 -25 38 -25 15z"/>
<path d="M2727 6055 c-3 -16 -9 -48 -12 -70 -20 -130 -25 -143 -54 -150 -21
-4 -33 -16 -44 -43 -19 -47 -18 -82 4 -82 13 0 114 37 128 46 2 2 -6 22 -18
46 -20 42 -20 46 -5 147 14 98 15 171 1 106z"/>
<path d="M396 5765 c-4 -66 -10 -133 -11 -149 -2 -16 -9 -90 -15 -165 -15
-187 -48 -449 -63 -491 -6 -19 -19 -47 -29 -62 -10 -14 -18 -31 -18 -37 0 -6
-4 -11 -10 -11 -5 0 -10 -5 -10 -10 0 -16 -52 -70 -67 -70 -7 0 -13 -4 -13 -9
0 -6 24 -3 53 6 28 9 60 17 70 17 10 0 19 9 22 21 8 46 26 167 40 275 25 187
69 741 63 781 -2 13 -8 -30 -12 -96z"/>
<path d="M3488 5624 c-3 -3 -20 -6 -37 -6 -40 -1 -57 -28 -40 -60 30 -59 61
-70 128 -47 36 13 49 46 31 79 -14 27 -67 49 -82 34z"/>
<path d="M5383 5185 c1 -30 4 -55 8 -55 4 0 6 -8 4 -17 -11 -52 -13 -123 -5
-123 6 0 10 11 10 25 0 14 5 25 10 25 6 0 10 -9 10 -19 0 -11 5 -32 11 -48
l11 -28 14 30 13 30 1 -35 c1 -19 4 -30 6 -23 4 8 16 10 36 6 18 -3 33 -1 37
5 12 19 96 26 130 11 17 -8 31 -17 31 -21 0 -5 6 -8 13 -8 7 0 33 -9 56 -21
24 -11 65 -26 92 -32 36 -9 49 -17 49 -29 0 -14 8 -18 40 -18 22 0 40 -4 40
-10 0 -5 9 -10 21 -10 23 0 60 -18 72 -34 4 -7 10 -8 15 -1 13 17 52 18 52 1
0 -12 10 -16 40 -16 28 0 40 -4 40 -14 0 -15 34 -31 47 -23 5 3 25 -3 45 -13
21 -10 61 -23 90 -30 29 -7 68 -18 86 -26 18 -8 41 -14 51 -14 10 0 26 -9 36
-20 9 -10 37 -22 62 -26 24 -3 50 -13 58 -20 7 -8 21 -14 29 -14 9 0 16 -4 16
-10 0 -5 12 -10 28 -10 15 -1 38 -7 52 -15 14 -8 38 -14 53 -15 16 0 26 -4 22
-10 -3 -5 1 -10 10 -10 8 0 23 -4 33 -9 15 -8 99 -35 112 -36 3 -1 31 -11 63
-23 32 -12 64 -22 72 -22 8 0 24 -9 36 -21 11 -11 27 -18 35 -15 9 3 29 -1 46
-10 29 -15 30 -15 24 1 -3 9 -6 21 -6 26 0 5 -11 9 -25 9 -14 0 -25 5 -25 10
0 6 -9 10 -19 10 -11 0 -22 4 -25 9 -3 4 -19 11 -36 14 -17 4 -55 18 -85 32
-29 14 -64 28 -76 30 -12 2 -31 11 -43 18 -11 8 -34 17 -51 21 -16 4 -46 14
-65 23 -19 8 -51 22 -70 30 -19 8 -44 18 -55 23 -11 5 -33 13 -50 18 l-30 10
29 1 c16 1 26 4 22 8 -3 4 -27 6 -52 4 -35 -1 -45 1 -42 11 4 9 -6 14 -30 15
-19 1 -48 7 -65 14 -27 12 -28 13 -11 26 23 16 10 17 -16 1 -16 -10 -25 -9
-49 5 -16 9 -38 17 -49 17 -11 0 -22 6 -25 13 -3 7 -31 20 -63 27 -56 14 -57
15 -29 22 21 5 16 6 -17 3 -27 -3 -48 -1 -48 4 0 13 -81 51 -107 51 -12 0 -23
3 -25 8 -7 17 -89 53 -107 47 -11 -3 -22 -1 -26 5 -3 5 -17 10 -31 10 -15 0
-24 6 -24 15 0 18 14 19 41 4 22 -11 59 -4 59 12 0 6 -9 7 -21 4 -11 -4 -42
-1 -70 5 -37 9 -53 9 -63 1 -17 -15 -71 7 -114 47 -7 6 -19 12 -25 12 -7 0 -1
6 13 14 14 7 29 9 35 4 5 -4 18 -8 30 -8 18 1 18 2 3 10 -18 11 -59 19 -123
24 -30 3 -44 -1 -57 -17 -10 -11 -18 -15 -18 -9 0 7 -17 19 -37 28 l-38 16 25
10 25 10 -35 13 c-19 8 -44 14 -56 14 -11 1 -29 10 -38 20 -16 17 -10 17 61
-7 43 -14 80 -29 81 -34 2 -4 13 -8 25 -8 21 0 21 1 -3 13 -14 7 -41 19 -60
26 -31 12 -154 68 -172 77 -3 3 -6 -21 -5 -51z"/>
<path d="M8913 4919 c-24 -22 -46 -53 -49 -67 -14 -69 -15 -66 14 -41 15 13
31 30 35 37 18 27 24 8 25 -68 1 -70 -1 -82 -20 -100 -12 -11 -25 -20 -28 -20
-6 0 -40 -64 -40 -75 0 -5 62 2 85 10 17 6 16 4 -4 -15 -13 -11 -30 -19 -37
-16 -7 3 -10 -2 -7 -15 3 -10 -1 -29 -9 -41 -8 -13 -18 -38 -21 -57 -7 -33 -7
-33 16 -17 12 9 39 25 59 34 l38 17 0 238 c0 130 -3 237 -7 237 -5 0 -27 -19
-50 -41z"/>
<path d="M5600 4568 c-41 -4 -85 -8 -97 -8 -12 0 -34 -5 -47 -10 -24 -9 -25
-12 -24 -97 1 -48 3 -80 6 -70 2 9 7 17 12 17 5 0 11 8 13 18 4 16 5 16 6 0 1
-12 9 -18 26 -18 18 0 25 -5 25 -20 0 -23 -10 -26 -29 -7 -11 10 -12 3 -7 -42
9 -65 29 -108 23 -48 -1 20 1 37 5 37 4 0 8 -18 8 -40 0 -29 -4 -40 -15 -40
-16 0 -19 -9 -9 -34 3 -9 10 -13 15 -10 5 3 9 -5 9 -18 l0 -23 23 26 c12 15
30 29 40 32 9 4 17 12 17 19 0 9 -3 8 -10 -2 -6 -10 -10 -11 -10 -2 0 6 -10
12 -21 12 -17 0 -20 4 -15 23 3 12 6 30 6 40 0 11 8 17 25 17 33 0 32 6 -7 42
l-33 31 33 15 c37 18 42 44 10 60 l-23 11 23 0 c24 1 31 21 7 21 -8 0 -15 3
-15 8 1 7 78 46 94 47 5 0 11 6 14 13 2 6 2 11 0 11 -1 -1 -37 -6 -78 -11z"/>
<path d="M6880 3915 c0 -533 7 -682 36 -737 19 -36 53 -35 71 3 20 42 34 158
31 259 l-3 95 -29 3 c-16 2 -32 -2 -37 -10 -5 -7 -9 163 -9 381 0 378 -1 396
-22 455 -12 34 -25 65 -30 71 -4 5 -8 -229 -8 -520z"/>
<path d="M7744 3732 c4 -221 9 -409 12 -417 10 -25 24 -17 24 14 0 16 5 31 11
33 18 6 21 167 3 202 -11 23 -14 76 -14 237 0 152 -4 223 -15 265 -8 31 -17
60 -21 63 -3 3 -3 -175 0 -397z"/>
<path d="M8264 3833 c-17 -84 -7 -668 12 -717 10 -26 23 -18 30 20 4 23 1 54
-10 86 -18 56 -22 92 -7 70 6 -10 10 -9 14 7 3 13 -1 25 -11 31 -15 9 -14 10
6 16 21 6 22 10 21 123 -1 64 -5 143 -9 176 l-7 60 -2 -52 c0 -28 -5 -55 -11
-58 -15 -9 -12 104 4 158 11 36 12 55 3 82 -13 45 -24 44 -33 -2z"/>
<path d="M8101 3759 c-1 -86 -20 -159 -42 -159 -6 0 -1 -15 10 -34 14 -22 26
-72 37 -147 21 -146 33 -168 35 -64 2 94 3 69 -12 279 -13 194 -27 258 -28
125z"/>
<path d="M7285 3589 c1 -85 3 -182 4 -216 l1 -62 30 17 c33 19 35 30 20 113
-5 30 -17 104 -26 164 -9 61 -20 116 -24 124 -4 7 -6 -56 -5 -140z"/>
<path d="M8599 3478 c-1 -13 -1 -26 -1 -29 5 -40 2 -299 -4 -313 -6 -15 -4
-17 12 -9 10 5 61 8 112 8 60 -1 96 3 102 10 15 18 29 146 30 258 l0 97 -125
0 c-123 0 -125 0 -126 -22z"/>
<path d="M4047 3316 c-33 -7 -62 -17 -65 -22 -25 -36 -70 -91 -83 -101 -11 -9
-16 -30 -17 -75 -1 -35 -5 -86 -8 -114 -3 -29 -2 -54 4 -57 5 -4 61 8 126 26
123 33 129 38 101 87 -22 38 -19 165 4 217 17 37 18 54 2 52 -3 0 -32 -6 -64
-13z"/>
<path d="M1910 3190 l0 -111 -315 3 c-173 2 -315 0 -315 -3 0 -16 50 -19 335
-19 l304 0 3 116 c2 64 0 118 -4 121 -5 2 -8 -46 -8 -107z"/>
<path d="M1223 2934 c-24 -9 -43 -20 -43 -25 0 -12 0 -12 51 7 38 13 85 15
354 9 286 -7 316 -9 384 -31 41 -13 68 -17 60 -10 -20 18 -115 44 -179 50 -30
3 -174 7 -320 10 -226 5 -271 3 -307 -10z"/>
<path d="M1277 2883 c-13 -12 -8 -113 6 -113 6 0 125 -7 262 -15 138 -8 278
-15 313 -15 l62 0 0 53 c0 28 -4 57 -8 64 -11 18 -618 43 -635 26z"/>
<path d="M1502 2203 c-28 -55 -43 -124 -34 -155 6 -18 13 -50 17 -70 5 -31 10
-38 29 -38 28 0 37 11 59 70 21 58 21 58 -5 62 -19 2 -24 10 -26 41 -2 21 2
45 9 53 6 8 9 17 6 21 -4 3 -14 -11 -23 -33 -20 -48 -33 -66 -45 -58 -12 7 28
85 55 106 l21 18 -27 0 c-16 0 -31 -7 -36 -17z"/>
<path d="M1139 1942 c-1 -10 -3 -33 -5 -52 -3 -26 -1 -31 8 -22 18 18 78 14
268 -19 185 -32 242 -41 355 -58 39 -6 94 -15 124 -21 29 -5 55 -10 57 -10 2
0 4 13 4 28 l0 28 -202 32 c-286 47 -537 91 -575 101 -28 8 -33 6 -34 -7z"/>
<path d="M2655 1722 c-5 -4 -15 -16 -21 -27 -7 -13 -39 -28 -97 -45 -47 -14
-89 -28 -92 -31 -3 -4 -3 -30 1 -59 l7 -51 61 6 c58 5 89 11 129 22 9 2 17 11
17 19 0 8 9 23 20 34 12 12 15 20 8 20 -8 0 -9 3 -3 8 6 4 15 22 22 41 l12 33
-41 -6 c-38 -6 -40 -6 -27 11 8 10 19 21 24 25 7 5 7 8 0 8 -5 0 -14 -4 -20
-8z"/>
<path d="M1130 1621 c0 -15 35 -35 105 -60 51 -19 69 -21 118 -13 42 7 78 5
125 -4 150 -31 267 -66 328 -100 45 -25 204 -44 204 -24 0 5 -7 10 -16 10 -9
0 -22 8 -29 17 -9 12 -61 26 -176 49 -90 17 -211 41 -269 54 -58 12 -157 33
-220 46 -63 12 -127 26 -142 30 -18 4 -28 2 -28 -5z"/>
<path d="M0 609 l0 -62 61 7 c34 3 73 6 85 6 17 0 24 6 23 18 0 10 -3 12 -6 5
-7 -18 -83 -17 -83 1 0 10 21 16 75 21 41 4 75 9 75 12 0 8 -33 32 -45 33 -5
0 -3 -5 5 -10 10 -7 -5 -9 -50 -9 -46 1 -56 3 -35 8 41 9 20 20 -49 27 l-56 5
0 -62z"/>
<path d="M0 203 l0 -203 390 0 c240 1 388 5 385 11 -4 5 1 12 9 15 9 3 16 13
16 21 0 10 6 13 16 9 9 -3 20 -6 25 -6 5 0 9 -5 9 -11 0 -5 -4 -8 -9 -5 -12 8
-41 -4 -41 -16 0 -5 12 -9 28 -7 15 1 35 -2 46 -6 12 -5 21 -3 28 6 7 11 11
11 15 2 6 -16 23 -17 23 -2 0 6 7 17 15 26 14 14 15 13 9 -12 -6 -25 -5 -26
15 -13 16 10 25 10 40 1 16 -10 22 -9 32 3 10 13 10 17 -2 25 -11 7 -11 9 4 9
9 0 17 -4 17 -10 0 -5 9 -10 20 -10 14 0 18 5 13 17 -5 12 -2 15 9 11 17 -7
38 9 34 26 -2 6 -1 8 1 4 3 -5 16 -8 29 -8 14 0 23 4 19 9 -3 6 11 8 32 6 21
-2 44 2 51 8 11 9 17 8 26 -4 6 -8 19 -18 30 -22 11 -4 16 -13 12 -22 -3 -9 0
-15 9 -15 26 0 25 18 -2 39 -24 17 -26 22 -13 30 11 8 17 6 22 -7 6 -15 8 -15
13 4 5 16 20 23 73 32 110 20 122 24 122 38 0 17 -17 19 -22 2 -7 -21 -29 3
-23 25 2 12 2 16 -1 10 -3 -7 -13 -13 -22 -13 -14 -1 -14 -2 2 -12 17 -10 13
-13 -34 -25 -29 -7 -55 -11 -58 -8 -3 3 2 5 11 5 10 0 17 4 17 9 0 5 8 12 18
14 9 3 -4 3 -29 0 -42 -5 -47 -3 -53 18 -7 22 -8 23 -15 5 -5 -14 -10 -16 -15
-8 -4 7 -12 10 -17 6 -6 -3 -2 -12 8 -19 24 -18 8 -33 -18 -17 -11 7 -24 10
-29 7 -6 -4 -10 -1 -10 6 0 8 -4 8 -15 -1 -13 -11 -13 -15 -3 -21 10 -7 10 -9
-2 -9 -22 0 -40 14 -32 25 12 17 52 36 52 25 0 -5 5 -10 10 -10 6 0 10 6 10
14 0 7 20 19 45 26 25 7 44 18 42 23 -6 18 -27 20 -27 3 0 -12 -11 -16 -47
-16 -34 0 -53 -6 -70 -22 -13 -12 -25 -19 -29 -16 -3 3 5 15 17 27 l23 21 -22
0 c-12 0 -22 -3 -22 -8 0 -4 -21 -7 -47 -7 -27 0 -69 -4 -95 -9 -34 -6 -48 -5
-48 3 0 6 9 11 20 11 11 0 20 6 20 14 0 19 -48 16 -60 -4 -7 -12 -12 -12 -35
0 -18 10 -28 11 -33 3 -4 -5 -16 -13 -28 -17 -18 -6 -21 -2 -20 26 1 18 5 39
9 46 5 7 4 12 -2 12 -6 0 -11 -4 -11 -10 0 -13 -37 -13 -45 0 -3 5 0 10 8 10
8 0 17 7 21 15 3 8 10 14 15 13 5 -2 17 6 25 17 16 20 16 20 35 -4 14 -18 20
-21 24 -10 5 11 8 10 17 -4 6 -9 15 -15 21 -12 14 9 11 25 -6 25 -8 0 -15 4
-15 8 0 14 -74 45 -78 33 -2 -6 -14 -8 -28 -5 -18 5 -24 2 -24 -10 0 -9 -7
-19 -15 -22 -8 -4 -15 -14 -15 -24 0 -15 -7 -16 -51 -12 -31 3 -50 1 -46 -4 3
-6 -9 -8 -28 -6 -26 3 -32 8 -28 23 5 17 1 18 -45 12 -67 -8 -142 4 -142 23 0
10 -12 14 -40 14 -22 0 -40 -4 -40 -9 0 -12 -150 -2 -175 12 -11 6 -66 12
-122 13 l-103 1 0 -204z"/>
</g>
</svg>
